<?xml version="1.0" encoding="UTF-8"?>
<svg width="9px" height="11px" viewBox="0 0 9 11" version="1.1" xmlns="http://www.w3.org/2000/svg" xmlns:xlink="http://www.w3.org/1999/xlink">
    <!-- Generator: Sketch 63.1 (92452) - https://sketch.com -->
    <title>Group</title>
    <desc>Created with Sketch.</desc>
    <g id="Page-1" stroke="none" stroke-width="1" fill="none" fill-rule="evenodd">
        <g id="iPhone-8-Copy-34" transform="translate(-309.000000, -310.000000)" fill="#FFFFFF" fill-rule="nonzero">
            <g id="Group" transform="translate(309.000000, 310.000000)">
                <path d="M4.5,5 C5.87573964,5 7,3.87573964 7,2.5 C7,1.12426036 5.87573964,0 4.5,0 C3.12426036,0 2,1.12426036 2,2.5 C2,3.87573964 3.12426036,5 4.5,5 Z M4.5,0.591715976 C5.55029586,0.591715976 6.40828402,1.44970414 6.40828402,2.5 C6.40828402,3.55029586 5.55029586,4.40828402 4.5,4.40828402 C3.44970414,4.40828402 2.59171598,3.55029586 2.59171598,2.5 C2.59171598,1.44970414 3.44970414,0.591715976 4.5,0.591715976 Z" id="Shape"></path>
                <path d="M4.5,6 C2.01515152,6 0,8.23905724 0,11 L0.606060606,11 C0.606060606,8.60942761 2.34848485,6.67340067 4.5,6.67340067 C6.65151515,6.67340067 8.39393939,8.60942761 8.39393939,11 L9,11 C9,8.23905724 6.98484848,6 4.5,6 Z" id="Path"></path>
            </g>
        </g>
    </g>
</svg>