<?xml version="1.0" encoding="UTF-8"?>
<svg width="16px" height="13px" viewBox="0 0 16 13" version="1.1" xmlns="http://www.w3.org/2000/svg" xmlns:xlink="http://www.w3.org/1999/xlink">
    <!-- Generator: Sketch 63.1 (92452) - https://sketch.com -->
    <title>Shape</title>
    <desc>Created with Sketch.</desc>
    <g id="Page-1" stroke="none" stroke-width="1" fill="none" fill-rule="evenodd">
        <g id="iPhone-8-Copy-37" transform="translate(-180.000000, -420.000000)" fill="#FFFFFF" fill-rule="nonzero">
            <g id="Group-6" transform="translate(171.000000, 408.000000)">
                <path d="M9.75,16.3748177 L17.75,16.3748177 L17.75,16.3748177 L22.2955,16.3748177 L21.2485,17.4743552 L21.25,17.4769801 C21.09775,17.6370985 21,17.8666306 21,18.1250365 C21,18.608308 21.33575,19 21.75,19 C21.94275,19 22.117,18.9127953 22.25,18.7730928 L22.25175,18.775426 L24.75175,16.1505354 L24.75,16.1479105 C24.90225,15.9877922 25,15.7579684 25,15.4998542 C25,15.2417399 24.90225,15.0119162 24.75,14.8517978 L24.75175,14.8494646 L22.25175,12.224574 L22.25,12.2269072 C22.117,12.0874964 21.94275,12 21.75,12 C21.33575,12 21,12.391692 21,12.8749635 C21,13.1330778 21.09775,13.3629015 21.25,13.5230199 L21.24825,13.5253531 L22.2955,14.6248906 L18.75,14.6248906 L18.75,14.6248906 L15.5,14.6248906 L15.5,14.6248906 L11.7045,14.6248906 L11.7045,14.6248906 L9.75,14.6248906 C9.33575,14.6248906 9,15.0165826 9,15.4998542 C9,15.9831257 9.33575,16.3748177 9.75,16.3748177 Z M24.25,20.625 L22.2955,20.625 L22.2955,20.625 L18.5,20.625 L18.5,20.625 L15.25,20.625 L15.25,20.625 L11.7045,20.625 L12.75175,19.5254167 L12.75,19.523375 C12.9025,19.3629583 13,19.1334167 13,18.875 C13,18.3917083 12.66425,18 12.25,18 C12.057,18 11.883,18.0875 11.75,18.226625 L11.74825,18.2242917 L9.24825,20.8492917 L9.25,20.851625 C9.09775,21.0123333 9,21.241875 9,21.5 C9,21.758125 9.09775,21.9876667 9.25,22.148375 L9.24825,22.1504167 L11.74825,24.7754167 L11.75,24.773375 C11.883,24.9127917 12.05725,25 12.25,25 C12.66425,25 13,24.6082917 13,24.125 C13,23.866875 12.90225,23.6370417 12.75,23.476625 L12.75175,23.4742917 L11.7045,22.375 L17.75,22.375 L17.75,22.375 L24.25,22.375 C24.66425,22.375 25,21.9832917 25,21.5 C25,21.0167083 24.66425,20.625 24.25,20.625 Z" id="Shape"></path>
            </g>
        </g>
    </g>
</svg>