<?xml version="1.0" encoding="UTF-8"?>
<svg width="27px" height="27px" viewBox="0 0 27 27" version="1.1" xmlns="http://www.w3.org/2000/svg" xmlns:xlink="http://www.w3.org/1999/xlink">
    <!-- Generator: Sketch 63.1 (92452) - https://sketch.com -->
    <title>a</title>
    <desc>Created with Sketch.</desc>
    <g id="Page-1" stroke="none" stroke-width="1" fill="none" fill-rule="evenodd">
        <g id="iPhone-8-Copy-24" transform="translate(-103.000000, -339.000000)" fill="#FFFFFF" fill-rule="nonzero">
            <g id="Group" transform="translate(74.000000, 310.000000)">
                <g id="a" transform="translate(29.000000, 29.000000)">
                    <path d="M19.6928571,0.428571429 C19.5357143,0.214285714 19.3428571,0.0857142857 19.1142857,0.0428571429 C18.8714286,-0.0142857143 18.6428571,0.0285714286 18.4285714,0.171428571 C18.2428571,0.3 18.1214286,0.485714286 18.0642857,0.728571429 C18.0214286,0.957142857 18.0642857,1.17857143 18.1928571,1.39285714 L20.8071429,5.33571429 L8.31428571,5.33571429 C7.22857143,5.33571429 6.19285714,5.54285714 5.20714286,5.95714286 C4.25,6.37142857 3.40714286,6.94285714 2.67857143,7.67142857 C1.93571429,8.4 1.36428571,9.24285714 0.964285714,10.2 C0.55,11.1857143 0.342857143,12.2214286 0.342857143,13.3071429 C0.342857143,13.55 0.421428571,13.7571429 0.578571429,13.9285714 C0.75,14.1 0.964285714,14.1857143 1.22142857,14.1857143 C1.46428571,14.1857143 1.67142857,14.1 1.84285714,13.9285714 C2.02857143,13.7571429 2.12142857,13.55 2.12142857,13.3071429 C2.12142857,11.5928571 2.72142857,10.1357143 3.92142857,8.93571429 C5.13571429,7.72142857 6.6,7.11428571 8.31428571,7.11428571 L20.8071429,7.11428571 L18.2142857,11.0571429 C18.0714286,11.2428571 18.0214286,11.4571429 18.0642857,11.7 C18.1071429,11.9285714 18.2285714,12.1214286 18.4285714,12.2785714 C18.6428571,12.3928571 18.8714286,12.4357143 19.1142857,12.4071429 C19.3428571,12.3642857 19.5357143,12.2357143 19.6928571,12.0214286 L23.2285714,6.70714286 L23.3142857,6.51428571 C23.3285714,6.42857143 23.35,6.32857143 23.3785714,6.21428571 C23.3785714,6.1 23.3571429,6.00714286 23.3142857,5.93571429 L23.2285714,5.74285714 L19.6928571,0.428571429 M26.9142857,13.3071429 C26.9142857,13.05 26.8285714,12.8428571 26.6571429,12.6857143 C26.4714286,12.5142857 26.2642857,12.4285714 26.0357143,12.4285714 C25.7785714,12.4285714 25.5714286,12.5142857 25.4142857,12.6857143 C25.2285714,12.8428571 25.1357143,13.05 25.1357143,13.3071429 C25.1357143,15.0071429 24.5285714,16.4642857 23.3142857,17.6785714 C22.1,18.8928571 20.6428571,19.5 18.9428571,19.5 L6.42857143,19.5 L9.02142857,15.5785714 C9.16428571,15.3785714 9.22142857,15.15 9.19285714,14.8928571 C9.15,14.6642857 9.02142857,14.4785714 8.80714286,14.3357143 C8.59285714,14.2071429 8.36428571,14.1642857 8.12142857,14.2071429 C7.89285714,14.2642857 7.70714286,14.3928571 7.56428571,14.5928571 L3.92142857,20.0785714 C3.89285714,20.1928571 3.87857143,20.3 3.87857143,20.4 C3.87857143,20.5 3.89285714,20.6071429 3.92142857,20.7214286 L7.56428571,26.1857143 C7.70714286,26.3857143 7.89285714,26.5214286 8.12142857,26.5928571 C8.36428571,26.6357143 8.59285714,26.5857143 8.80714286,26.4428571 C8.99285714,26.3142857 9.12142857,26.1214286 9.19285714,25.8642857 C9.22142857,25.6357143 9.17857143,25.4214286 9.06428571,25.2214286 L6.42857143,21.2785714 L18.9428571,21.2785714 C20.0285714,21.2785714 21.0571429,21.0714286 22.0285714,20.6571429 C22.9857143,20.2571429 23.8285714,19.6785714 24.5571429,18.9214286 C25.3142857,18.1928571 25.8928571,17.35 26.2928571,16.3928571 C26.7071429,15.4214286 26.9142857,14.3928571 26.9142857,13.3071429 Z" id="Shape"></path>
                </g>
            </g>
        </g>
    </g>
</svg>