<?xml version="1.0" encoding="UTF-8"?>
<svg width="321px" height="176px" viewBox="0 0 321 176" version="1.1" xmlns="http://www.w3.org/2000/svg" xmlns:xlink="http://www.w3.org/1999/xlink">
    <!-- Generator: Sketch 63.1 (92452) - https://sketch.com -->
    <title>Group 5</title>
    <desc>Created with Sketch.</desc>
    <g id="Page-1" stroke="none" stroke-width="1" fill="none" fill-rule="evenodd">
        <g id="iPhone-8-Copy-34" transform="translate(-30.000000, -37.000000)" fill="#FFFFFF" fill-rule="nonzero">
            <g id="Group-5" transform="translate(29.667463, 32.257853)">
                <path d="M15.4042969,84.0766602 C16.59375,84.0766602 18.5053711,83.8642578 21.1816406,83.4394531 L21.1816406,83.609375 C21.6489258,83.4819336 22.03125,83.4394531 22.3710938,83.4394531 C26.9165039,82.9296875 29.1679688,81.9951172 29.1679688,80.5932617 C30.7397461,80.0410156 31.546875,79.1914062 31.546875,78.0444336 L31.546875,77.8745117 C30.8671875,76.6000977 30.0600586,75.9628906 29.1679688,75.9628906 L25.5996094,75.9628906 L24.75,75.7929688 C21.309082,76.5576172 19.2700195,76.9399414 18.6328125,76.9399414 C17.953125,76.4726562 17.6132812,75.7929688 17.6132812,74.8583984 C18.7602539,71.2475586 19.3125,69.293457 19.3125,68.9536133 L19.1425781,67.0844727 C19.6098633,65.6401367 19.9921875,63.6010742 20.3320312,61.0097656 C20.2045898,61.0097656 20.1621094,60.9672852 20.1621094,60.8823242 L20.3320312,60.8823242 C20.3320312,59.4804688 20.4594727,58.0786133 20.671875,56.7192383 C20.5444336,56.7192383 20.5019531,56.6767578 20.5019531,56.5917969 L20.8417969,53.8730469 C20.7143555,53.8730469 20.671875,53.8305664 20.671875,53.703125 L20.8417969,53.703125 C20.8417969,53.065918 20.7143555,52.1313477 20.5019531,50.8569336 L20.671875,50.2197266 C20.5444336,50.2197266 20.5019531,50.1772461 20.5019531,50.0498047 C20.6293945,50.0498047 20.7143555,49.625 20.8417969,48.7753906 L20.671875,48.7753906 C20.7993164,47.9682617 20.8842773,47.4584961 21.0117188,47.2036133 L20.8417969,47.2036133 C20.9692383,46.4814453 21.0541992,45.9716797 21.1816406,45.7592773 L21.0117188,45.7592773 C21.4790039,42.5732422 22.0737305,38.7075195 22.8808594,34.1621094 C22.753418,34.1621094 22.7109375,34.1196289 22.7109375,33.9921875 L22.8808594,33.9921875 C22.753418,31.315918 22.7109375,29.7016602 22.7109375,29.234375 C22.7109375,28.512207 22.8808594,27.6625977 23.2207031,26.6855469 C23.2207031,26.0908203 23.1782227,25.7084961 23.0507812,25.5810547 C23.0507812,23.3295898 21.6914062,22.2250977 18.9726562,22.2250977 C18.7602539,22.3525391 18.5478516,22.3950195 18.2929688,22.3950195 C18.1655273,22.3950195 17.9956055,22.3525391 17.7832031,22.2250977 L17.4433594,22.3950195 C15.234375,21.9702148 13.0678711,21.7578125 10.9863281,21.7578125 L9.96679688,21.7578125 C9.07470703,21.7578125 8.05517578,21.8427734 6.90820312,22.0551758 C4.31689453,23.1171875 3,24.1791992 3,25.2412109 C3,26.0483398 3.38232422,26.6855469 4.18945312,27.152832 C7.7578125,27.2802734 9.96679688,27.4926758 10.8164062,27.7900391 L10.8164062,28.597168 C10.8164062,30.0839844 10.519043,32.2504883 9.96679688,35.0966797 C7.92773438,41.4262695 6.90820312,46.6513672 6.90820312,50.8569336 C7.03564453,50.8569336 7.078125,50.8994141 7.078125,51.0268555 C4.82666016,64.3232422 3.6796875,72.6918945 3.6796875,76.1328125 C3.6796875,78.5117188 4.86914062,80.6357422 7.24804688,82.5048828 C9.20214844,83.3544922 11.1987305,83.8642578 13.1953125,84.0766602 C13.1953125,83.9492188 13.237793,83.9067383 13.3652344,83.9067383 C13.5776367,84.0341797 13.7900391,84.0766602 14.0449219,84.0766602 L15.4042969,84.0766602 Z M45.1831055,84.331543 C51.5126953,84.4589844 55.2509766,82.972168 56.3979492,79.7861328 C56.3979492,78.5117188 55.0810547,77.8745117 52.4472656,77.8745117 C50.3657227,78.0869141 48.3266602,78.2143555 46.3300781,78.2143555 C45.5654297,78.2143555 45.1831055,77.8745117 45.1831055,77.2373047 L45.1831055,76.9399414 C45.1831055,76.3027344 45.2255859,75.453125 45.3530273,74.3486328 C44.9282227,72.7768555 44.7158203,70.015625 44.7158203,66.0224609 L44.7158203,64.4506836 L44.8857422,62.5390625 C44.5458984,61.9018555 44.3334961,61.137207 44.2060547,60.2875977 C44.4088024,57.8140758 44.5341373,56.1920943 44.5451125,55.4216531 L44.5458984,52.8959961 C44.5458984,52.34375 44.503418,51.4516602 44.3759766,50.1772461 C44.503418,50.1772461 44.5458984,50.0073242 44.5458984,49.7099609 L44.3759766,49.4125977 L45.0131836,49.4125977 C47.9868164,48.3505859 49.6435547,47.7983398 49.9833984,47.7983398 C52.0224609,47.7983398 53.3818359,46.9487305 54.1040039,45.2495117 C54.1040039,44.5273438 53.7641602,43.8901367 53.0844727,43.2954102 C53.0844727,42.9130859 50.9604492,42.190918 46.6699219,41.2138672 C45.2680664,41.3413086 44.4609375,41.3837891 44.2060547,41.3837891 C43.9511719,41.3837891 43.7387695,40.5766602 43.5688477,39.0048828 L44.3759766,36.753418 C44.2485352,35.3515625 44.2060547,34.2470703 44.2060547,33.3974609 L44.2060547,33.0576172 C44.2060547,32.3354492 44.3759766,31.5283203 44.7158203,30.6787109 C44.9282227,30.6787109 45.140625,30.7211914 45.3530273,30.8486328 L45.6928711,30.6787109 L45.6928711,30.8486328 L46.5,30.6787109 L48.496582,30.6787109 C52.9145508,30.6787109 55.8881836,29.1918945 57.375,26.1757812 C57.375,24.8164062 56.5678711,23.7119141 54.9111328,22.8198242 C52.3198242,22.6923828 49.6010742,22.4799805 46.6699219,22.1826172 C45.7353516,22.1826172 45.0131836,22.3100586 44.5458984,22.5224609 C43.6113281,22.1826172 41.5297852,21.8427734 38.3012695,21.5454102 C38.3012695,21.6728516 37.706543,21.715332 36.4746094,21.715332 C34.0532227,22.6074219 32.8637695,23.5419922 32.8637695,24.434082 L32.8637695,27.7900391 C32.8637695,28.3847656 32.8212891,29.1494141 32.6938477,30.0415039 C32.8212891,30.2539062 32.90625,30.7636719 33.0336914,31.4858398 C32.90625,32.0380859 32.8637695,32.5478516 32.8637695,33.0576172 L32.8637695,33.6948242 C32.8637695,33.9921875 32.9487305,34.4594727 33.1611328,35.1391602 L32.3540039,45.546875 C32.4814453,48.902832 32.5664062,50.7294922 32.6938477,50.984375 L32.3540039,54.6801758 C32.5664062,57.4414062 32.8212891,59.1831055 33.0336914,59.9477539 C32.8212891,62.4116211 32.6938477,64.4931641 32.6938477,66.1923828 C32.6938477,71.6723633 33.3310547,77.2373047 34.5629883,82.887207 C36.6445312,84.246582 40.1704102,84.7138672 45.1831055,84.331543 Z M72.0732422,87.1352539 C77.3833008,86.5830078 80.0595703,85.5634766 80.0595703,84.0766602 C80.0595703,83.4394531 79.7197266,81.612793 79.0400391,78.6391602 C79.0400391,78.0869141 79.2099609,76.5576172 79.5498047,74.0512695 L79.5498047,73.7114258 C79.5498047,72.2246094 79.2524414,70.5678711 78.7001953,68.7836914 L78.8701172,67.2543945 C78.8701172,66.9570312 78.7426758,64.578125 78.5302734,60.1176758 L78.5302734,59.4379883 C78.5302734,58.6308594 78.6577148,57.3564453 78.8701172,55.699707 C78.8701172,55.2324219 78.7001953,54.0429688 78.3603516,52.1313477 C78.3603516,51.7915039 78.487793,51.0693359 78.7001953,49.9223633 L78.0205078,42.2758789 L78.3603516,39.7270508 C78.1479492,38.8349609 77.8081055,37.9853516 77.3408203,37.1782227 C77.5532227,36.7109375 77.7231445,36.03125 77.8505859,35.1391602 C77.8505859,34.5019531 77.4682617,32.4628906 76.6611328,29.0219727 C76.6611328,28.7246094 76.7036133,28.2998047 76.8310547,27.6625977 L81.5888672,27.6625977 C82.9482422,27.6625977 84.3500977,27.4501953 85.8369141,26.9829102 C88.4282227,26.0483398 89.7451172,24.4765625 89.7451172,22.2250977 C89.7451172,21.6303711 89.1928711,20.6533203 88.0458984,19.3364258 C85.7944336,19.1240234 82.8632812,18.6992188 79.2099609,18.1469727 L78.1904297,18.3168945 L76.4912109,18.3168945 C75.8540039,18.3168945 75.0893555,18.359375 74.1123047,18.4868164 C73.8999023,18.359375 73.6875,18.3168945 73.4326172,18.3168945 C73.0927734,18.3168945 72.9228516,18.359375 72.9228516,18.4868164 C69.1845703,18.6567383 65.0639648,19.1665039 60.5185547,19.9736328 C58.012207,20.0585938 56.652832,21.5029297 56.4404297,24.2641602 C56.4404297,24.9013672 56.7802734,25.4536133 57.4599609,25.9633789 C61.0708008,26.4306641 63.4072266,26.7705078 64.4267578,26.9829102 C64.7666016,39.1748047 65.2338867,47.3310547 65.7861328,51.4516602 L65.4462891,54.340332 C65.7861328,55.9121094 65.9560547,57.78125 65.9560547,59.9477539 L65.9560547,63.1762695 L66.1259766,64.8754883 C65.9985352,64.8754883 65.8710938,65.5551758 65.7861328,66.9145508 C65.7861328,67.8066406 65.8286133,68.2739258 65.9560547,68.2739258 C65.9560547,77.6621094 66.6782227,83.5244141 68.1650391,85.7758789 C68.7172852,86.6679688 69.9916992,87.1352539 72.0732422,87.1352539 Z M101.469727,87.1352539 C106.779785,86.5830078 109.456055,85.5634766 109.456055,84.0766602 C109.456055,83.4394531 109.116211,81.612793 108.436523,78.6391602 C108.436523,78.0869141 108.606445,76.5576172 108.946289,74.0512695 L108.946289,73.7114258 C108.946289,72.2246094 108.648926,70.5678711 108.09668,68.7836914 L108.266602,67.2543945 C108.266602,66.9570312 108.13916,64.578125 107.926758,60.1176758 L107.926758,59.4379883 C107.926758,58.6308594 108.054199,57.3564453 108.266602,55.699707 C108.266602,55.2324219 108.09668,54.0429688 107.756836,52.1313477 C107.756836,51.7915039 107.884277,51.0693359 108.09668,49.9223633 L107.416992,42.2758789 L107.756836,39.7270508 C107.544434,38.8349609 107.20459,37.9853516 106.737305,37.1782227 C106.949707,36.7109375 107.119629,36.03125 107.24707,35.1391602 C107.24707,34.5019531 106.864746,32.4628906 106.057617,29.0219727 C106.057617,28.7246094 106.100098,28.2998047 106.227539,27.6625977 L110.985352,27.6625977 C112.344727,27.6625977 113.746582,27.4501953 115.233398,26.9829102 C117.824707,26.0483398 119.141602,24.4765625 119.141602,22.2250977 C119.141602,21.6303711 118.589355,20.6533203 117.442383,19.3364258 C115.190918,19.1240234 112.259766,18.6992188 108.606445,18.1469727 L107.586914,18.3168945 L105.887695,18.3168945 C105.250488,18.3168945 104.48584,18.359375 103.508789,18.4868164 C103.296387,18.359375 103.083984,18.3168945 102.829102,18.3168945 C102.489258,18.3168945 102.319336,18.359375 102.319336,18.4868164 C98.5810547,18.6567383 94.4604492,19.1665039 89.9150391,19.9736328 C87.4086914,20.0585938 86.0493164,21.5029297 85.8369141,24.2641602 C85.8369141,24.9013672 86.1767578,25.4536133 86.8564453,25.9633789 C90.4672852,26.4306641 92.8037109,26.7705078 93.8232422,26.9829102 C94.1630859,39.1748047 94.6303711,47.3310547 95.1826172,51.4516602 L94.8427734,54.340332 C95.1826172,55.9121094 95.3525391,57.78125 95.3525391,59.9477539 L95.3525391,63.1762695 L95.5224609,64.8754883 C95.3950195,64.8754883 95.2675781,65.5551758 95.1826172,66.9145508 C95.1826172,67.8066406 95.2250977,68.2739258 95.3525391,68.2739258 C95.3525391,77.6621094 96.074707,83.5244141 97.5615234,85.7758789 C98.1137695,86.6679688 99.3881836,87.1352539 101.469727,87.1352539 Z M131.630859,84.331543 C137.960449,84.4589844 141.69873,82.972168 142.845703,79.7861328 C142.845703,78.5117188 141.528809,77.8745117 138.89502,77.8745117 C136.813477,78.0869141 134.774414,78.2143555 132.777832,78.2143555 C132.013184,78.2143555 131.630859,77.8745117 131.630859,77.2373047 L131.630859,76.9399414 C131.630859,76.3027344 131.67334,75.453125 131.800781,74.3486328 C131.375977,72.7768555 131.163574,70.015625 131.163574,66.0224609 L131.163574,64.4506836 L131.333496,62.5390625 C130.993652,61.9018555 130.78125,61.137207 130.653809,60.2875977 C130.866211,57.6962891 130.993652,56.0395508 130.993652,55.3173828 L130.993652,52.8959961 C130.993652,52.34375 130.951172,51.4516602 130.82373,50.1772461 C130.951172,50.1772461 130.993652,50.0073242 130.993652,49.7099609 L130.82373,49.4125977 L131.460938,49.4125977 C134.43457,48.3505859 136.091309,47.7983398 136.431152,47.7983398 C138.470215,47.7983398 139.82959,46.9487305 140.551758,45.2495117 C140.551758,44.5273438 140.211914,43.8901367 139.532227,43.2954102 C139.532227,42.9130859 137.408203,42.190918 133.117676,41.2138672 C131.71582,41.3413086 130.908691,41.3837891 130.653809,41.3837891 C130.398926,41.3837891 130.186523,40.5766602 130.016602,39.0048828 L130.82373,36.753418 C130.696289,35.3515625 130.653809,34.2470703 130.653809,33.3974609 L130.653809,33.0576172 C130.653809,32.3354492 130.82373,31.5283203 131.163574,30.6787109 C131.375977,30.6787109 131.588379,30.7211914 131.800781,30.8486328 L132.140625,30.6787109 L132.140625,30.8486328 L132.947754,30.6787109 L134.944336,30.6787109 C139.362305,30.6787109 142.335938,29.1918945 143.822754,26.1757812 C143.822754,24.8164062 143.015625,23.7119141 141.358887,22.8198242 C138.767578,22.6923828 136.048828,22.4799805 133.117676,22.1826172 C132.183105,22.1826172 131.460938,22.3100586 130.993652,22.5224609 C130.059082,22.1826172 127.977539,21.8427734 124.749023,21.5454102 C124.749023,21.6728516 124.154297,21.715332 122.922363,21.715332 C120.500977,22.6074219 119.311523,23.5419922 119.311523,24.434082 L119.311523,27.7900391 C119.311523,28.3847656 119.269043,29.1494141 119.141602,30.0415039 C119.269043,30.2539062 119.354004,30.7636719 119.481445,31.4858398 C119.354004,32.0380859 119.311523,32.5478516 119.311523,33.0576172 L119.311523,33.6948242 C119.311523,33.9921875 119.396484,34.4594727 119.608887,35.1391602 L118.801758,45.546875 C118.929199,48.902832 119.01416,50.7294922 119.141602,50.984375 L118.801758,54.6801758 C119.01416,57.4414062 119.269043,59.1831055 119.481445,59.9477539 C119.269043,62.4116211 119.141602,64.4931641 119.141602,66.1923828 C119.141602,71.6723633 119.778809,77.2373047 121.010742,82.887207 C123.092285,84.246582 126.618164,84.7138672 131.630859,84.331543 Z M158.86084,84.4589844 C159.837891,84.3740234 160.390137,84.246582 160.560059,84.1191406 L161.57959,84.2890625 L162.259277,84.2890625 C163.746094,84.2890625 165.105469,83.9067383 166.337402,83.0996094 C167.90918,82.7597656 168.716309,82.0800781 168.716309,81.0605469 C168.716309,80.1259766 168.249023,79.1064453 167.356934,78.0019531 C164.468262,77.534668 162.259277,76.8549805 160.72998,75.9628906 L160.72998,75.7929688 C160.72998,75.1557617 160.857422,74.3061523 161.069824,73.2441406 L160.390137,66.4472656 C160.857422,63.6010742 161.069824,61.9868164 161.069824,61.5195312 C161.069824,60.2026367 161.027344,59.3105469 160.899902,58.8007812 C161.027344,57.7387695 161.069824,56.6342773 161.069824,55.5722656 L161.069824,49.2851562 C161.069824,48.4780273 160.942383,47.2036133 160.72998,45.546875 C161.197266,42.105957 161.409668,39.2597656 161.409668,37.0507812 L161.409668,34.3320312 L160.390137,23.2871094 C160.177734,21.5454102 158.053711,20.440918 153.933105,20.0585938 C153.933105,20.1860352 153.805664,20.2285156 153.593262,20.2285156 L152.743652,20.0585938 C152.743652,20.1860352 152.701172,20.2285156 152.57373,20.2285156 L152.233887,20.0585938 L151.894043,20.0585938 C149.642578,20.8232422 148.495605,21.715332 148.495605,22.7773438 C148.495605,22.9472656 148.623047,23.4570312 148.835449,24.3066406 C148.538086,24.7314453 148.283203,27.237793 147.98584,31.7832031 C147.178711,35.8188477 146.796387,39.9819336 146.796387,44.1875 L146.796387,45.0371094 C146.796387,46.4389648 146.923828,47.7133789 147.13623,48.9453125 C146.923828,50.7294922 146.796387,51.8764648 146.796387,52.34375 C146.796387,52.4711914 146.838867,52.6411133 146.966309,52.8535156 C146.753906,53.4057617 146.626465,54.425293 146.626465,55.9121094 L146.626465,58.2910156 C146.626465,60.0751953 146.753906,61.2646484 146.966309,61.859375 L146.796387,61.859375 C146.796387,63.6860352 146.753906,64.9604492 146.626465,65.7675781 C146.753906,67.1694336 146.796387,67.9765625 146.796387,68.1464844 C146.668945,71.9272461 146.626465,74.730957 146.626465,76.4726562 C146.626465,77.4921875 146.923828,78.9790039 147.476074,80.890625 C149.217773,83.2695312 152.998535,84.4589844 158.86084,84.4589844 Z M178.699219,28.0024414 C182.47998,27.6625977 184.349121,27.4077148 184.349121,27.1953125 C186.728027,25.0712891 187.91748,23.074707 187.91748,21.2480469 C187.91748,18.4018555 185.708496,17 181.290527,17 C178.571777,17 175.980469,17.3823242 173.474121,18.1894531 C172.624512,19.3364258 172.072266,20.4833984 171.817383,21.5878906 L172.284668,24.519043 C172.751953,26.7705078 174.875977,27.9174805 178.699219,28.0024414 Z M178.401855,87.1777344 C180.440918,87.1777344 182.012695,86.8803711 183.159668,86.328125 C185.411133,86.0307617 186.558105,85.3510742 186.558105,84.2890625 L186.558105,83.4394531 L185.19873,69.8457031 C185.326172,69.8457031 185.623535,68.1889648 186.04834,64.9179688 C185.708496,62.8364258 185.538574,61.3071289 185.538574,60.3300781 C185.878418,57.144043 186.04834,55.1899414 186.04834,54.3828125 L186.04834,53.3632812 L185.878418,52.5136719 C186.345703,51.3242188 186.558105,50.1347656 186.558105,48.9453125 L186.558105,48.0957031 C186.558105,47.1611328 186.388184,46.4389648 186.04834,45.8867188 C186.388184,44.909668 186.558105,44.3149414 186.558105,44.0175781 C186.558105,42.7431641 186.260742,40.9165039 185.708496,38.5800781 C185.15625,35.6489258 183.117188,34.1621094 179.591309,34.1621094 L178.401855,34.1621094 C177.637207,34.1621094 176.95752,34.2045898 176.362793,34.3320312 C174.32373,35.1391602 173.304199,35.9887695 173.304199,36.8808594 L173.304199,38.4101562 C173.304199,40.2368164 173.261719,41.9360352 173.134277,43.5078125 C172.582031,48.2231445 172.157227,52.1313477 171.944824,55.2324219 L172.284668,61.6894531 C172.072266,64.6630859 171.944824,66.5322266 171.944824,67.296875 L172.964355,80.7207031 C172.964355,83.2270508 173.34668,84.7563477 174.153809,85.3085938 C174.536133,86.5405273 175.640625,87.1777344 177.552246,87.1777344 L178.401855,87.1777344 Z M201.341309,86.8803711 C201.46875,86.7529297 201.893555,86.7104492 202.530762,86.7104492 C204.994629,86.7104492 206.566406,86.0307617 207.288574,84.6713867 C209.412598,82.3349609 210.984375,79.7861328 212.046387,77.0249023 C212.173828,74.6035156 212.38623,72.8618164 212.726074,71.7573242 C212.513672,69.378418 212.38623,67.4667969 212.38623,65.9799805 L212.38623,64.7905273 C212.38623,64.6630859 212.088867,63.0488281 211.536621,60.0327148 C210.51709,56.8466797 209.837402,54.2978516 209.497559,52.3862305 C207.925781,48.0532227 205.334473,42.7431641 201.681152,36.4135742 C200.449219,33.0576172 199.812012,30.5512695 199.812012,28.9370117 L199.812012,27.7475586 C200.789062,27.7475586 202.40332,29.1494141 204.569824,31.9956055 C205.249512,34.6293945 205.801758,36.3286133 206.269043,37.0932617 C206.94873,37.9853516 208.435547,38.6650391 210.687012,39.1323242 C214.085449,39.1323242 215.784668,38.4951172 215.784668,37.2631836 C215.572266,33.2275391 215.232422,30.5087891 214.765137,29.1069336 C211.494141,22.4375 207.416016,19.081543 202.530762,19.081543 C199.259766,19.081543 196.286133,20.1435547 193.524902,22.3100586 C191.783203,23.3720703 190.508789,25.2412109 189.786621,27.9174805 C189.914062,29.4042969 190.041504,30.2539062 190.126465,30.4663086 C189.999023,30.6787109 189.956543,30.8911133 189.956543,31.1459961 L189.956543,33.0151367 C189.956543,33.4399414 190.296387,35.309082 190.976074,38.6225586 C191.443359,41.9360352 193.27002,46.1416016 196.413574,51.1967773 C196.753418,52.8535156 197.645508,54.9775391 199.132324,57.4838867 C199.727051,60.3725586 200.364258,62.0292969 201.001465,62.4116211 L201.001465,64.4506836 C201.808594,66.659668 202.40332,69.8881836 202.700684,74.1362305 C202.573242,75.5805664 202.36084,77.2797852 202.020996,79.2338867 L201.851074,79.2338867 C201.128906,78.6816406 200.406738,76.9824219 199.64209,74.1362305 C198.240234,69.8457031 196.243652,67.6791992 193.694824,67.6791992 C192.887695,67.7216797 192.505371,67.8066406 192.505371,68.019043 C190.253906,68.019043 189.106934,69.0810547 189.106934,71.2475586 L189.106934,72.4370117 C189.106934,73.7539062 189.489258,75.0283203 190.296387,76.175293 C190.678711,78.2568359 191.613281,80.2109375 193.015137,81.9526367 C194.332031,85.2236328 197.093262,86.8803711 201.341309,86.8803711 Z M225.385254,87.3051758 C230.143066,86.5405273 232.521973,85.5209961 232.521973,84.246582 L232.352051,83.0571289 C232.437012,82.3774414 232.564453,82.0375977 232.691895,82.0375977 C233.15918,76.7275391 233.583984,73.2866211 233.881348,71.6723633 C236.8125,71.6723633 238.511719,70.8227539 238.979004,69.1235352 C241.145508,67.296875 242.377441,65.7675781 242.717285,64.5356445 C244.416504,62.1992188 245.648438,58.1210938 246.455566,52.3012695 L246.285645,52.3012695 C246.413086,50.7719727 246.455566,49.625 246.455566,48.902832 L246.455566,47.3735352 C246.455566,46.8212891 246.158203,44.9946289 245.605957,41.9360352 C245.945801,41.2988281 246.158203,40.6191406 246.285645,39.8969727 C244.92627,35.6489258 244.07666,32.7602539 243.736816,31.230957 C241.570312,28.8095703 240.508301,27.4926758 240.508301,27.3227539 C236.727539,23.796875 233.20166,22.0551758 229.973145,22.0551758 C229.760742,22.0551758 228.486328,22.0976562 226.234863,22.2250977 C222.156738,23.2446289 220.117676,24.3916016 220.117676,25.6235352 L220.117676,27.4926758 L219.947754,27.8325195 L220.117676,27.8325195 C220.117676,27.9599609 220.075195,28.0024414 219.947754,28.0024414 C219.735352,35.4790039 219.60791,39.9394531 219.60791,41.4262695 L219.60791,47.2036133 L219.777832,48.3930664 C219.650391,48.3930664 219.60791,48.6054688 219.60791,49.0727539 L219.60791,51.4516602 C219.60791,51.8339844 219.650391,52.34375 219.777832,52.980957 C219.650391,53.1933594 219.60791,53.4057617 219.60791,53.6606445 C219.60791,57.1015625 219.820312,60.3300781 220.287598,63.3461914 C220.287598,64.8330078 220.245117,66.6171875 220.117676,68.7836914 C220.245117,70.1005859 220.287598,71.0776367 220.287598,71.6723633 C219.60791,75.2832031 219.268066,77.2373047 219.268066,77.6196289 C219.60791,81.7827148 220.117676,84.5014648 220.797363,85.7758789 C220.797363,86.7954102 221.986816,87.3051758 224.365723,87.3051758 L225.385254,87.3051758 Z M234.05127,64.7055664 C234.391113,62.5390625 234.561035,60.9672852 234.561035,59.9477539 L234.561035,59.777832 C234.008789,55.9970703 233.711426,53.6181641 233.711426,52.6411133 L234.730957,48.2231445 C234.178711,44.1875 233.753906,41.6386719 233.541504,40.5766602 L233.711426,39.8969727 C233.711426,39.2172852 233.668945,38.1977539 233.541504,36.8383789 L233.711426,35.309082 C233.583984,34.5019531 233.244141,33.0576172 232.691895,31.0610352 L232.691895,30.8911133 L232.861816,30.8911133 C234.09375,33.3549805 235.283203,36.1162109 236.430176,39.2172852 C237.237305,41.0864258 237.832031,44.9946289 238.129395,50.9418945 C238.086914,53.5332031 237.916992,54.8500977 237.619629,54.8500977 C235.792969,61.4345703 234.603516,64.7055664 234.05127,64.7055664 Z M256.820801,28.0024414 C260.601562,27.6625977 262.470703,27.4077148 262.470703,27.1953125 C264.849609,25.0712891 266.039062,23.074707 266.039062,21.2480469 C266.039062,18.4018555 263.830078,17 259.412109,17 C256.693359,17 254.102051,17.3823242 251.595703,18.1894531 C250.746094,19.3364258 250.193848,20.4833984 249.938965,21.5878906 L250.40625,24.519043 C250.873535,26.7705078 252.997559,27.9174805 256.820801,28.0024414 Z M256.523438,87.1777344 C258.5625,87.1777344 260.134277,86.8803711 261.28125,86.328125 C263.532715,86.0307617 264.679688,85.3510742 264.679688,84.2890625 L264.679688,83.4394531 L263.320312,69.8457031 C263.447754,69.8457031 263.745117,68.1889648 264.169922,64.9179688 C263.830078,62.8364258 263.660156,61.3071289 263.660156,60.3300781 C263.986929,57.2665828 264.1566,55.3420793 264.169168,54.4810377 L264.169922,53.3632812 L264,52.5136719 C264.467285,51.3242188 264.679688,50.1347656 264.679688,48.9453125 L264.679688,48.0957031 C264.679688,47.1611328 264.509766,46.4389648 264.169922,45.8867188 C264.509766,44.909668 264.679688,44.3149414 264.679688,44.0175781 C264.679688,42.7431641 264.382324,40.9165039 263.830078,38.5800781 C263.277832,35.6489258 261.23877,34.1621094 257.712891,34.1621094 L256.523438,34.1621094 C255.758789,34.1621094 255.079102,34.2045898 254.484375,34.3320312 C252.445312,35.1391602 251.425781,35.9887695 251.425781,36.8808594 L251.425781,38.4101562 C251.425781,40.2368164 251.383301,41.9360352 251.255859,43.5078125 C250.703613,48.2231445 250.278809,52.1313477 250.066406,55.2324219 L250.40625,61.6894531 C250.193848,64.6630859 250.066406,66.5322266 250.066406,67.296875 L251.085938,80.7207031 C251.085938,83.2270508 251.468262,84.7563477 252.275391,85.3085938 C252.657715,86.5405273 253.762207,87.1777344 255.673828,87.1777344 L256.523438,87.1777344 Z M281.119629,84.331543 C287.449219,84.4589844 291.1875,82.972168 292.334473,79.7861328 C292.334473,78.5117188 291.017578,77.8745117 288.383789,77.8745117 C286.302246,78.0869141 284.263184,78.2143555 282.266602,78.2143555 C281.501953,78.2143555 281.119629,77.8745117 281.119629,77.2373047 L281.119629,76.9399414 C281.119629,76.3027344 281.162109,75.453125 281.289551,74.3486328 C280.864746,72.7768555 280.652344,70.015625 280.652344,66.0224609 L280.652344,64.4506836 L280.822266,62.5390625 C280.482422,61.9018555 280.27002,61.137207 280.142578,60.2875977 C280.35498,57.6962891 280.482422,56.0395508 280.482422,55.3173828 L280.482422,52.8959961 C280.482422,52.34375 280.439941,51.4516602 280.3125,50.1772461 C280.439941,50.1772461 280.482422,50.0073242 280.482422,49.7099609 L280.3125,49.4125977 L280.949707,49.4125977 C283.92334,48.3505859 285.580078,47.7983398 285.919922,47.7983398 C287.958984,47.7983398 289.318359,46.9487305 290.040527,45.2495117 C290.040527,44.5273438 289.700684,43.8901367 289.020996,43.2954102 C289.020996,42.9130859 286.896973,42.190918 282.606445,41.2138672 C281.20459,41.3413086 280.397461,41.3837891 280.142578,41.3837891 C279.887695,41.3837891 279.675293,40.5766602 279.505371,39.0048828 L280.3125,36.753418 C280.185059,35.3515625 280.142578,34.2470703 280.142578,33.3974609 L280.142578,33.0576172 C280.142578,32.3354492 280.3125,31.5283203 280.652344,30.6787109 C280.864746,30.6787109 281.077148,30.7211914 281.289551,30.8486328 L281.629395,30.6787109 L281.629395,30.8486328 L282.436523,30.6787109 L284.433105,30.6787109 C288.851074,30.6787109 291.824707,29.1918945 293.311523,26.1757812 C293.311523,24.8164062 292.504395,23.7119141 290.847656,22.8198242 C288.256348,22.6923828 285.537598,22.4799805 282.606445,22.1826172 C281.671875,22.1826172 280.949707,22.3100586 280.482422,22.5224609 C279.547852,22.1826172 277.466309,21.8427734 274.237793,21.5454102 C274.237793,21.6728516 273.643066,21.715332 272.411133,21.715332 C269.989746,22.6074219 268.800293,23.5419922 268.800293,24.434082 L268.800293,27.7900391 C268.800293,28.3847656 268.757812,29.1494141 268.630371,30.0415039 C268.757812,30.2539062 268.842773,30.7636719 268.970215,31.4858398 C268.842773,32.0380859 268.800293,32.5478516 268.800293,33.0576172 L268.800293,33.6948242 C268.800293,33.9921875 268.885254,34.4594727 269.097656,35.1391602 L268.290527,45.546875 C268.417969,48.902832 268.50293,50.7294922 268.630371,50.984375 L268.290527,54.6801758 C268.50293,57.4414062 268.757812,59.1831055 268.970215,59.9477539 C268.757812,62.4116211 268.630371,64.4931641 268.630371,66.1923828 C268.630371,71.6723633 269.267578,77.2373047 270.499512,82.887207 C272.581055,84.246582 276.106934,84.7138672 281.119629,84.331543 Z M308.349609,84.4589844 C309.32666,84.3740234 309.878906,84.246582 310.048828,84.1191406 L311.068359,84.2890625 L311.748047,84.2890625 C313.234863,84.2890625 314.594238,83.9067383 315.826172,83.0996094 C317.397949,82.7597656 318.205078,82.0800781 318.205078,81.0605469 C318.205078,80.1259766 317.737793,79.1064453 316.845703,78.0019531 C313.957031,77.534668 311.748047,76.8549805 310.21875,75.9628906 L310.21875,75.7929688 C310.21875,75.1557617 310.346191,74.3061523 310.558594,73.2441406 L309.878906,66.4472656 C310.346191,63.6010742 310.558594,61.9868164 310.558594,61.5195312 C310.558594,60.2026367 310.516113,59.3105469 310.388672,58.8007812 C310.516113,57.7387695 310.558594,56.6342773 310.558594,55.5722656 L310.558594,49.2851562 C310.558594,48.4780273 310.431152,47.2036133 310.21875,45.546875 C310.686035,42.105957 310.898438,39.2597656 310.898438,37.0507812 L310.898438,34.3320312 L309.878906,23.2871094 C309.666504,21.5454102 307.54248,20.440918 303.421875,20.0585938 C303.421875,20.1860352 303.294434,20.2285156 303.082031,20.2285156 L302.232422,20.0585938 C302.232422,20.1860352 302.189941,20.2285156 302.0625,20.2285156 L301.722656,20.0585938 L301.382812,20.0585938 C299.131348,20.8232422 297.984375,21.715332 297.984375,22.7773438 C297.984375,22.9472656 298.111816,23.4570312 298.324219,24.3066406 C298.026855,24.7314453 297.771973,27.237793 297.474609,31.7832031 C296.66748,35.8188477 296.285156,39.9819336 296.285156,44.1875 L296.285156,45.0371094 C296.285156,46.4389648 296.412598,47.7133789 296.625,48.9453125 C296.412598,50.7294922 296.285156,51.8764648 296.285156,52.34375 C296.285156,52.4711914 296.327637,52.6411133 296.455078,52.8535156 C296.242676,53.4057617 296.115234,54.425293 296.115234,55.9121094 L296.115234,58.2910156 C296.115234,60.0751953 296.242676,61.2646484 296.455078,61.859375 L296.285156,61.859375 C296.285156,63.6860352 296.242676,64.9604492 296.115234,65.7675781 C296.242676,67.1694336 296.285156,67.9765625 296.285156,68.1464844 C296.157715,71.9272461 296.115234,74.730957 296.115234,76.4726562 C296.115234,77.4921875 296.412598,78.9790039 296.964844,80.890625 C298.706543,83.2695312 302.487305,84.4589844 308.349609,84.4589844 Z" id="Zettelispiel" transform="translate(160.602539, 52.152588) rotate(-6.000000) translate(-160.602539, -52.152588) "></path>
                <path d="M21.5949239,134.638174 C21.6286154,134.638174 21.74092,134.626943 21.9542989,134.593252 C22.6730489,134.177724 23.0324239,133.818349 23.0324239,133.515127 L23.0324239,133.470205 C23.0324239,133.369131 23.0211935,133.234365 22.9875021,133.065908 C22.6618185,132.15624 22.4933614,131.650869 22.4933614,131.538564 C22.2687521,131.370107 22.0329122,130.741201 21.7746114,129.651845 C21.2917013,128.764638 21.0558614,128.281728 21.0558614,128.214345 C20.8312521,127.473135 20.2809591,126.788076 19.3937521,126.147939 C19.58467,125.912099 19.7194357,125.788564 19.7980489,125.788564 C20.4831075,124.878896 20.8312521,124.070303 20.8312521,123.362783 L20.7863302,123.04833 C20.9323263,122.722646 21.0109396,122.475576 21.0109396,122.32958 L21.0109396,122.060049 C21.0109396,121.464834 20.9772482,121.161611 20.9210958,121.161611 C20.9210958,120.476553 20.7750997,119.724111 20.4718771,118.915517 C20.1911154,118.25292 19.7194357,117.635244 19.0792989,117.07372 C18.7985372,116.748037 17.7765646,116.57958 16.0246114,116.57958 C15.2497091,116.725576 14.8566427,116.972646 14.8566427,117.343252 C14.8566427,118.612295 14.8229513,121.015615 14.7667989,124.530752 C14.7667989,124.676748 14.7780294,124.755361 14.8117208,124.755361 C14.8117208,126.181631 14.912795,127.551748 15.1261739,128.843252 C15.2497091,131.662099 15.4069357,133.268056 15.6203146,133.649892 C15.7438497,134.009267 16.0807638,134.188955 16.6085958,134.188955 C18.169631,134.020498 18.9445333,133.795888 18.9445333,133.515127 L18.9445333,132.796377 C18.9445333,132.223623 18.86592,131.493642 18.7199239,130.595205 C18.7199239,130.572744 18.7311544,130.4829 18.7648458,130.325674 L18.8097677,130.325674 L18.9445333,130.774892 C19.8766622,132.582998 20.3371114,133.683584 20.3371114,134.099111 C20.3371114,134.334951 20.7526388,134.514638 21.5949239,134.638174 Z M18.1808614,124.351064 L18.1359396,124.351064 L17.8664083,122.464345 L17.8664083,121.38622 C17.8664083,121.172842 17.787795,120.835928 17.6417989,120.353017 C17.6417989,120.330556 17.6530294,120.240713 17.6867208,120.083486 C17.6530294,119.039053 17.6081075,118.432607 17.5519552,118.241689 L17.5968771,118.241689 C18.4616232,118.769521 18.8996114,119.93749 18.8996114,121.745595 L18.8996114,122.374502 C18.8996114,123.05956 18.6637716,123.722158 18.1808614,124.351064 Z M29.3888693,134.132803 C29.8043966,134.132803 30.1525411,134.054189 30.4220724,133.908193 C30.6579122,133.908193 30.7814474,133.683584 30.7814474,133.234365 L30.7814474,133.009756 C30.7814474,132.908681 30.7365255,132.257314 30.6466818,131.033193 L30.6466818,130.988271 L30.6916036,130.898428 C30.6017599,130.359365 30.5119161,130.089834 30.4220724,130.089834 C30.4220724,130.033681 30.4333029,129.853994 30.4669943,129.550771 C30.4669943,129.371084 30.4220724,129.180166 30.3322286,128.966787 C30.388381,128.730947 30.4220724,128.57372 30.4220724,128.517568 C30.4220724,128.427724 30.36592,128.214345 30.2423849,127.888662 L30.3771505,127.080068 C30.3434591,126.687002 30.2760763,126.372549 30.197463,126.136709 C30.197463,125.44042 30.0739279,124.7329 29.838088,124.025381 C29.7482443,123.093252 29.64717,122.632803 29.5236349,122.632803 C29.5797872,122.531728 29.6134786,122.441885 29.6134786,122.363271 C29.6134786,122.149892 29.5348654,121.824209 29.3888693,121.37499 C29.310256,121.150381 29.1979513,120.712392 29.0744161,120.072256 C28.7711935,119.634267 28.6251974,119.252431 28.6251974,118.949209 C27.9962911,117.657705 27.4235372,117.017568 26.9181661,117.017568 L26.8732443,117.017568 C26.1432638,117.017568 25.716506,117.197256 25.6154318,117.556631 C25.1774435,117.736318 24.8854513,117.972158 24.7619161,118.275381 C24.7619161,118.623525 24.5709982,119.634267 24.1779318,121.285146 C23.728713,124.26122 23.3805685,126.40624 23.1447286,127.708974 C23.17842,128.281728 23.1896505,128.663564 23.1896505,128.832021 C22.9762716,130.101064 22.8751974,131.134267 22.8751974,131.931631 L22.8751974,132.470693 C23.0548849,133.155752 23.560256,133.503896 24.4025411,133.503896 C24.5260763,133.503896 24.7057638,133.414053 24.9416036,133.234365 C25.1549825,133.133291 25.2560568,132.807607 25.2560568,132.246084 C25.4694357,131.853017 25.6042013,131.516103 25.6603536,131.257803 C25.6378927,131.257803 25.5929708,131.033193 25.525588,130.583974 C25.6154318,130.258291 25.6603536,130.022451 25.6603536,129.865224 L25.6603536,129.595693 L25.6154318,129.505849 C25.6715841,129.382314 25.716506,129.326162 25.7501974,129.326162 L26.0197286,129.326162 C26.6486349,129.359853 26.9743185,129.416006 27.0080099,129.505849 C27.1090841,130.999502 27.4796896,132.39208 28.1310568,133.683584 C28.2545919,133.986806 28.6813497,134.132803 29.3888693,134.132803 Z M26.8732443,127.84374 L26.4689474,127.84374 C26.3229513,127.84374 26.0983419,127.83251 25.7951193,127.798818 C25.7951193,127.473135 25.8400411,127.080068 25.9298849,126.630849 C25.8961935,126.350088 25.884963,126.080556 25.884963,125.822256 L25.884963,125.732412 C26.0983419,124.665517 26.2780294,123.463857 26.4240255,122.138662 L26.4689474,122.138662 C26.77217,123.362783 26.9181661,124.463369 26.9181661,125.417959 L26.9181661,125.642568 C26.9181661,125.945791 26.8732443,126.338857 26.7834005,126.810537 C26.8395529,127.315908 26.8732443,127.652822 26.8732443,127.798818 L26.8732443,127.84374 Z M34.150588,134.503408 C35.5543966,134.357412 36.2619161,134.087881 36.2619161,133.694814 C36.2619161,133.526357 36.1720724,133.043447 35.9923849,132.257314 C35.9923849,132.111318 36.0373068,131.707021 36.1271505,131.044424 L36.1271505,130.95458 C36.1271505,130.561513 36.0485372,130.123525 35.9025411,129.651845 L35.947463,129.247549 C35.947463,129.168935 35.9137716,128.540029 35.8576193,127.36083 L35.8576193,127.181142 C35.8576193,126.967763 35.8913107,126.630849 35.947463,126.192861 C35.947463,126.069326 35.9025411,125.754873 35.8126974,125.249502 C35.8126974,125.159658 35.8463888,124.96874 35.9025411,124.665517 L35.7228536,122.644033 L35.8126974,121.970205 C35.756545,121.734365 35.6667013,121.509756 35.5431661,121.296377 C35.5993185,121.172842 35.6442404,120.993154 35.6779318,120.757314 C35.6779318,120.588857 35.5768575,120.049795 35.3634786,119.140127 C35.3634786,119.061513 35.3747091,118.949209 35.4084005,118.780752 L36.666213,118.780752 C37.025588,118.780752 37.3961935,118.724599 37.7892599,118.601064 C38.4743185,118.353994 38.822463,117.938467 38.822463,117.343252 C38.822463,117.186025 38.6764669,116.927724 38.3732443,116.57958 C37.7780294,116.523428 37.0031271,116.411123 36.0373068,116.265127 L35.7677755,116.310049 L35.3185568,116.310049 C35.1500997,116.310049 34.9479513,116.321279 34.6896505,116.35497 C34.6334982,116.321279 34.5773458,116.310049 34.509963,116.310049 C34.4201193,116.310049 34.3751974,116.321279 34.3751974,116.35497 C33.3869161,116.399892 32.2975607,116.534658 31.0959005,116.748037 C30.4333029,116.770498 30.0739279,117.152334 30.0177755,117.882314 C30.0177755,118.050771 30.1076193,118.196767 30.2873068,118.331533 C31.2418966,118.455068 31.8595724,118.544912 32.1291036,118.601064 C32.2189474,121.824209 32.3424825,123.980459 32.4884786,125.069814 L32.3986349,125.833486 C32.4884786,126.249013 32.5334005,126.743154 32.5334005,127.315908 L32.5334005,128.169424 L32.5783224,128.618642 C32.544631,128.618642 32.5109396,128.79833 32.4884786,129.157705 C32.4884786,129.393545 32.4997091,129.51708 32.5334005,129.51708 C32.5334005,131.999013 32.7243185,133.548818 33.1173849,134.144033 C33.263381,134.379873 33.600295,134.503408 34.150588,134.503408 Z M42.247756,134.480947 C42.6632833,134.480947 43.0226583,134.436025 43.325881,134.346181 C44.9430685,133.863271 45.7516622,133.391592 45.7516622,132.908681 C45.7516622,132.807607 45.7067404,132.672842 45.6168966,132.504385 C45.6168966,132.380849 44.8644552,132.268545 43.3708029,132.14501 C43.0900411,132.14501 42.9215841,131.774404 42.8766622,131.021963 C42.8766622,130.70751 42.9328146,129.898916 43.0563497,128.596181 C43.0563497,128.472646 42.966506,128.169424 42.7868185,127.697744 C42.8205099,127.439443 42.8317404,127.270986 42.8317404,127.203603 C42.8317404,127.012685 42.8205099,126.709463 42.7868185,126.305166 C42.8429708,126.001943 42.8766622,125.732412 42.8766622,125.496572 L42.8766622,124.463369 C42.8766622,124.036611 42.7980489,123.374013 42.6520529,122.486806 L42.6520529,122.396963 L42.7418966,122.396963 C44.0558614,122.138662 44.7184591,121.756826 44.7184591,121.228994 L44.7184591,121.094228 C44.7184591,120.824697 44.5387716,120.689931 44.1793966,120.689931 C43.3932638,120.723623 42.8542013,120.734853 42.5622091,120.734853 C42.4499044,120.734853 42.3712911,120.600088 42.3375997,120.330556 L42.3375997,120.195791 L42.3825216,119.881338 C42.056838,119.072744 41.8322286,118.477529 41.7086935,118.084463 L41.7086935,118.039541 L42.5172872,118.039541 L42.8317404,118.084463 C42.8317404,118.050771 42.8429708,118.039541 42.8766622,118.039541 L42.966506,118.084463 C43.5167989,117.960928 43.9884786,117.814931 44.404006,117.635244 C44.7970724,117.53417 44.9879904,117.242178 44.9879904,116.736806 C44.9879904,116.467275 44.5387716,116.33251 43.6403341,116.33251 L43.325881,116.377431 C43.325881,116.34374 43.3146505,116.33251 43.2809591,116.33251 C43.2809591,116.366201 43.2697286,116.377431 43.2360372,116.377431 L42.9215841,116.377431 C42.6183614,116.388662 42.4723654,116.411123 42.4723654,116.467275 L39.3278341,116.82665 C38.7326193,116.972646 38.4293966,117.141103 38.4293966,117.320791 C38.4293966,117.556631 38.5304708,117.994619 38.7438497,118.623525 C38.7101583,118.623525 38.6989279,118.634756 38.6989279,118.668447 L38.6989279,118.893056 C38.6989279,119.061513 38.6876974,119.308584 38.654006,119.611806 C38.7213888,119.712881 38.7663107,120.038564 38.7887716,120.600088 C38.7887716,121.049306 38.7775411,121.869131 38.7438497,123.070791 C38.7775411,123.576162 38.8336935,124.025381 38.9235372,124.418447 C38.9235372,124.676748 38.9123068,124.901357 38.8786154,125.092275 C38.9123068,126.563467 38.9572286,127.59667 39.013381,128.191885 C38.9796896,128.517568 38.9684591,128.80956 38.9684591,129.0454 C38.9684591,129.28124 39.0021505,129.404775 39.0583029,129.404775 C39.1481466,131.167959 39.2267599,132.055166 39.2829122,132.055166 C39.2829122,132.830068 39.372756,133.34667 39.5524435,133.58251 C40.4621114,134.177724 41.3605489,134.480947 42.247756,134.480947 Z" id="RatE" transform="translate(30.259231, 125.451650) rotate(-6.000000) translate(-30.259231, -125.451650) "></path>
                <path d="M72.435334,141.7818 C73.6555489,141.7818 74.7014473,141.258851 75.5232246,140.18805 C76.3948067,138.121156 76.8181465,136.104066 76.8181465,134.111878 C77.3410957,132.64264 77.6150215,131.198304 77.6150215,129.729066 C78.088166,128.558656 78.3122871,127.213929 78.3122871,125.645081 C79.0344551,122.482484 79.4079903,120.266175 79.4079903,118.971253 C79.4079903,117.950257 79.7815254,115.709046 80.5036934,112.297425 C80.3791817,111.475648 80.3044746,110.728578 80.3044746,110.00641 L80.6033028,107.615785 L80.6033028,107.516175 C80.0056465,105.299867 79.7068184,104.079652 79.7068184,103.830628 C79.7068184,102.959046 79.1091621,102.535706 77.9138496,102.535706 L76.5193184,102.535706 C75.7722481,102.535706 75.0500801,103.5318 74.3279121,105.523988 C74.3279121,105.797913 74.3528145,106.171449 74.4275215,106.619691 C74.103791,112.919984 73.9294746,117.028871 73.9294746,118.971253 C73.0578926,126.217835 72.6345528,130.750062 72.6345528,132.518128 L72.5349434,132.518128 C72.5349434,131.372621 72.3108223,130.276917 71.8376778,129.231019 L71.8376778,128.932191 C71.4392403,124.325257 71.0408028,121.536195 70.6423653,120.565003 C69.4719551,119.220277 68.525666,118.448304 67.7536934,118.273988 L67.4548653,118.273988 C66.5832832,118.273988 65.985627,118.448304 65.6618965,118.772035 C65.1389473,118.772035 64.6907051,120.241273 64.2673653,123.154847 L64.1677559,123.154847 C64.1677559,122.781312 64.0681465,122.432679 63.8689278,122.158753 L63.8689278,121.760316 L63.9685371,121.16266 C63.4953926,119.668519 63.2712715,118.846742 63.2712715,118.672425 C63.3957832,118.149476 63.4704903,117.800843 63.4704903,117.676331 L63.4704903,117.377503 C62.7483223,114.588441 62.3747871,112.720765 62.3747871,111.799378 C61.9763496,110.803285 61.7771309,110.031312 61.7771309,109.508363 C61.353791,107.516175 60.8059395,106.520081 60.0837715,106.520081 L58.5896309,106.520081 C56.3982246,106.644593 55.3025215,107.14264 55.3025215,108.014222 C55.3772285,108.014222 55.4519356,108.636781 55.5017403,109.9068 C55.5017403,110.803285 55.3772285,112.197816 55.1033028,114.090394 L55.2029121,114.588441 C55.1282051,115.410218 55.0784004,117.751038 55.0036934,121.660706 C55.0036934,121.984437 55.0285957,122.158753 55.1033028,122.158753 C55.3025215,126.890199 55.5266426,130.376527 55.8005684,132.617738 C56.2488106,137.921937 57.4690254,140.586488 59.4861153,140.586488 C60.0588692,140.586488 60.7561348,140.461976 61.5779121,140.18805 C63.4206856,140.18805 64.6159981,139.515687 65.1638496,138.195863 C65.7615059,136.627015 66.2844551,134.834046 66.7575996,132.816956 L66.857209,132.816956 L66.857209,133.016175 C66.782502,133.364808 66.7575996,133.564027 66.7575996,133.613831 C67.0813301,136.651917 67.4548653,138.743714 67.8533028,139.889222 C68.6750801,141.159242 69.5217598,141.7818 70.3435371,141.7818 L70.7419746,141.682191 C70.9660957,141.682191 71.5139473,141.707093 72.435334,141.7818 Z M90.614045,139.216859 C91.2615059,139.216859 92.282502,139.092347 93.7019356,138.818421 C95.0964668,138.395081 95.8933418,137.897035 96.0925606,137.324281 C97.0139473,136.67682 97.6116035,135.855042 97.8855293,134.834046 C98.9563301,131.845765 99.4792793,128.633363 99.4792793,125.171937 C99.4792793,122.357972 99.1057442,119.494203 98.3835762,116.605531 C98.3088692,115.086488 98.1594551,114.065492 97.9851387,113.51764 C97.3625801,112.496644 96.9392403,111.575257 96.6902168,110.728578 C96.1174629,108.41266 94.1252754,107.242249 90.7136543,107.242249 L90.1159981,107.242249 C90.0163887,107.242249 89.5930489,107.416566 88.8210762,107.740296 L87.9245918,107.740296 C86.1565254,107.740296 85.0110176,108.437562 84.5378731,109.832093 C83.0188301,113.119203 82.2468575,115.210999 82.2468575,116.107484 C81.5744942,119.544007 81.2507637,121.735413 81.2507637,122.681703 C81.3254707,123.129945 81.3752754,124.126038 81.4499825,125.669984 C83.1184395,134.709535 86.056916,139.216859 90.2156075,139.216859 L90.614045,139.216859 Z M92.0085762,133.638734 C91.7346504,133.514222 91.485627,133.115785 91.2117012,132.443421 C90.763459,130.700257 90.1658028,129.231019 89.4187325,128.060609 C89.4934395,128.060609 89.5183418,128.035706 89.5183418,127.960999 L89.5183418,127.761781 C89.0451973,124.648988 88.8210762,122.6568 88.8210762,121.785218 C88.8210762,120.614808 88.9206856,119.419496 89.1199043,118.199281 C89.1199043,115.460023 89.3938301,113.442933 89.9167793,112.123109 C90.1159981,112.197816 90.3401192,112.421937 90.614045,112.820374 C91.0871895,115.086488 91.5354317,116.804749 92.0085762,118.000062 C92.5315254,120.066956 92.9299629,122.606996 93.2038887,125.669984 C93.1291817,125.669984 93.1042793,125.694886 93.1042793,125.769593 L93.2038887,125.968812 C93.2038887,129.778871 92.8054512,132.343812 92.0085762,133.638734 Z M114.196564,143.848695 C114.744416,143.773988 115.466584,143.624574 116.387971,143.350648 C117.060334,143.126527 117.384064,142.578675 117.384064,141.657288 L117.384064,141.35846 C117.384064,140.760804 117.309357,140.18805 117.184846,139.665101 C115.914826,136.004456 115.292268,134.037171 115.292268,133.788148 C114.296174,131.970277 113.798127,130.824769 113.798127,130.401429 C113.399689,128.857484 112.328889,127.089417 110.610627,125.122132 L110.710236,124.922913 C111.033967,124.524476 111.781037,123.852113 112.901643,122.930726 C113.897736,121.585999 114.395783,120.789124 114.395783,120.540101 C114.794221,120.540101 115.267365,117.950257 115.790314,112.77057 C115.790314,112.546449 115.765412,111.849183 115.690705,110.678773 C115.117951,107.043031 114.271272,104.652406 113.100861,103.506898 C112.378693,102.187074 110.834748,101.51471 108.51883,101.51471 C107.697053,101.589417 107.248811,101.61432 107.223908,101.61432 C105.704865,101.61432 104.210725,102.286683 102.741486,103.606507 C102.417756,104.602601 102.14383,105.100648 101.944611,105.100648 C101.371857,106.071839 100.898713,107.98932 100.55008,110.877992 C100.55008,111.998597 100.624787,113.019593 100.749299,113.965882 L100.55008,115.161195 C100.55008,115.435121 100.574982,115.684144 100.649689,115.95807 C100.574982,116.979066 100.55008,117.900453 100.55008,118.747132 L100.55008,119.643617 C100.55008,120.490296 100.624787,121.361878 100.749299,122.23346 L100.55008,124.026429 L101.048127,129.803773 C101.048127,135.207581 101.521272,139.44098 102.442658,142.553773 C102.666779,143.151429 103.538361,143.450257 105.032502,143.450257 C106.700959,143.275941 107.522736,142.802796 107.522736,142.055726 C107.522736,141.433167 107.398225,140.785706 107.124299,140.063538 C107.199006,139.690003 107.223908,139.391175 107.223908,139.167054 L107.223908,137.274476 C107.223908,136.502503 107.298615,135.954652 107.423127,135.680726 C107.323518,135.680726 107.248811,135.282288 107.223908,134.485413 C107.34842,133.364808 107.423127,132.667542 107.423127,132.393617 L107.522736,132.393617 C107.522736,132.592835 107.622346,132.916566 107.821564,133.38971 C108.319611,134.23639 108.742951,135.456605 109.116486,137.075257 C110.037873,138.69391 110.710236,140.038636 111.108674,141.159242 C111.70633,142.95221 112.727326,143.848695 114.196564,143.848695 Z M107.223908,119.743226 L107.124299,119.344788 C107.124299,117.825746 106.999787,116.630433 106.725861,115.758851 C106.800568,115.385316 106.825471,115.086488 106.825471,114.862367 L106.825471,114.36432 C106.50174,112.148011 106.327424,110.404847 106.327424,109.085023 L106.327424,108.586976 C106.427033,106.071839 106.750764,104.80182 107.323518,104.80182 L107.423127,104.80182 C108.817658,106.046937 109.514924,108.362855 109.514924,111.774476 C109.514924,115.758851 108.742951,118.423402 107.223908,119.743226 Z M125.875764,143.47516 C128.988557,143.151429 130.557404,142.553773 130.557404,141.682191 C130.557404,141.308656 130.358186,140.237855 129.959748,138.494691 C129.959748,138.17096 130.059357,137.274476 130.258576,135.805238 L130.258576,135.606019 C130.258576,134.734437 130.08426,133.763246 129.760529,132.717347 L129.860139,131.820863 C129.860139,131.646546 129.785432,130.252015 129.66092,127.637269 L129.66092,127.238831 C129.66092,126.765687 129.735627,126.018617 129.860139,125.047425 C129.860139,124.773499 129.760529,124.076234 129.561311,122.955628 C129.561311,122.75641 129.636018,122.33307 129.760529,121.660706 L129.362092,117.178285 L129.561311,115.684144 C129.436799,115.161195 129.23758,114.663148 128.963654,114.190003 C129.088166,113.916078 129.187775,113.51764 129.262482,112.994691 C129.262482,112.621156 129.038361,111.425843 128.565217,109.408753 C128.565217,109.234437 128.590119,108.985413 128.664826,108.611878 L131.453889,108.611878 C132.250764,108.611878 133.072541,108.487367 133.944123,108.213441 C135.463166,107.665589 136.235139,106.744203 136.235139,105.424378 C136.235139,105.075746 135.911408,104.502992 135.239045,103.731019 C133.919221,103.606507 132.200959,103.357484 130.059357,103.033753 L129.461701,103.133363 L128.465607,103.133363 C128.092072,103.133363 127.64383,103.158265 127.071076,103.232972 C126.946564,103.158265 126.822053,103.133363 126.672639,103.133363 C126.47342,103.133363 126.373811,103.158265 126.373811,103.232972 C124.182404,103.332581 121.766877,103.63141 119.102326,104.104554 C117.633088,104.154359 116.836213,105.001038 116.711701,106.619691 C116.711701,106.993226 116.91092,107.316956 117.309357,107.615785 C119.426057,107.88971 120.795686,108.088929 121.393342,108.213441 C121.592561,115.360413 121.866486,120.141663 122.190217,122.557191 L121.990998,124.25055 C122.190217,125.171937 122.289826,126.26764 122.289826,127.53766 L122.289826,129.430238 L122.389436,130.426331 C122.314729,130.426331 122.240022,130.824769 122.190217,131.621644 C122.190217,132.144593 122.215119,132.418519 122.289826,132.418519 C122.289826,137.921937 122.713166,141.35846 123.584748,142.678285 C123.908479,143.201234 124.655549,143.47516 125.875764,143.47516 Z M143.556428,141.831605 C147.266877,141.906312 149.458283,141.03473 150.130647,139.167054 C150.130647,138.419984 149.358674,138.046449 147.814729,138.046449 C146.594514,138.17096 145.399201,138.245667 144.228791,138.245667 C143.780549,138.245667 143.556428,138.046449 143.556428,137.672913 L143.556428,137.498597 C143.556428,137.125062 143.58133,136.627015 143.656037,135.979554 C143.407014,135.058167 143.282502,133.439515 143.282502,131.098695 L143.282502,130.177308 L143.382111,129.056703 C143.182893,128.683167 143.058381,128.234925 142.983674,127.736878 C143.108186,126.217835 143.182893,125.246644 143.182893,124.823304 L143.182893,123.403871 C143.182893,123.08014 143.15799,122.557191 143.083283,121.810121 C143.15799,121.810121 143.182893,121.710511 143.182893,121.536195 L143.083283,121.361878 L143.456818,121.361878 C145.199982,120.73932 146.171174,120.415589 146.370393,120.415589 C147.565705,120.415589 148.36258,119.917542 148.78592,118.921449 C148.78592,118.498109 148.586701,118.124574 148.188264,117.775941 C148.188264,117.55182 146.943147,117.12848 144.42801,116.555726 C143.606232,116.630433 143.133088,116.655335 142.983674,116.655335 C142.83426,116.655335 142.709748,116.182191 142.610139,115.260804 L143.083283,113.94098 C143.008576,113.119203 142.983674,112.471742 142.983674,111.973695 L142.983674,111.774476 C142.983674,111.351136 143.083283,110.877992 143.282502,110.379945 C143.407014,110.379945 143.531525,110.404847 143.656037,110.479554 L143.855256,110.379945 L143.855256,110.479554 L144.3284,110.379945 L145.498811,110.379945 C148.088654,110.379945 149.831818,109.508363 150.7034,107.740296 C150.7034,106.943421 150.230256,106.29596 149.259064,105.773011 C147.740022,105.698304 146.146272,105.573792 144.42801,105.399476 C143.880158,105.399476 143.456818,105.474183 143.182893,105.598695 C142.635041,105.399476 141.414826,105.200257 139.522248,105.025941 C139.522248,105.100648 139.173615,105.12555 138.451447,105.12555 C137.032014,105.648499 136.334748,106.196351 136.334748,106.7193 L136.334748,108.686585 C136.334748,109.035218 136.309846,109.48346 136.235139,110.00641 C136.309846,110.130921 136.35965,110.429749 136.434357,110.853089 C136.35965,111.17682 136.334748,111.475648 136.334748,111.774476 L136.334748,112.148011 C136.334748,112.322328 136.384553,112.596253 136.509064,112.994691 L136.03592,119.095765 C136.110627,121.06305 136.160432,122.133851 136.235139,122.283265 L136.03592,124.449769 C136.160432,126.068421 136.309846,127.089417 136.434357,127.53766 C136.309846,128.981996 136.235139,130.20221 136.235139,131.198304 C136.235139,134.410706 136.608674,137.672913 137.330842,140.984925 C138.551057,141.7818 140.617951,142.055726 143.556428,141.831605 Z M165.495393,143.848695 C166.043244,143.773988 166.765412,143.624574 167.686799,143.350648 C168.359162,143.126527 168.682893,142.578675 168.682893,141.657288 L168.682893,141.35846 C168.682893,140.760804 168.608186,140.18805 168.483674,139.665101 C167.213654,136.004456 166.591096,134.037171 166.591096,133.788148 C165.595002,131.970277 165.096955,130.824769 165.096955,130.401429 C164.698518,128.857484 163.627717,127.089417 161.909455,125.122132 L162.009064,124.922913 C162.332795,124.524476 163.079865,123.852113 164.200471,122.930726 C165.196564,121.585999 165.694611,120.789124 165.694611,120.540101 C166.093049,120.540101 166.566193,117.950257 167.089143,112.77057 C167.089143,112.546449 167.06424,111.849183 166.989533,110.678773 C166.416779,107.043031 165.5701,104.652406 164.399689,103.506898 C163.677522,102.187074 162.133576,101.51471 159.817658,101.51471 C158.995881,101.589417 158.547639,101.61432 158.522736,101.61432 C157.003693,101.61432 155.509553,102.286683 154.040314,103.606507 C153.716584,104.602601 153.442658,105.100648 153.243439,105.100648 C152.670686,106.071839 152.197541,107.98932 151.848908,110.877992 C151.848908,111.998597 151.923615,113.019593 152.048127,113.965882 L151.848908,115.161195 C151.848908,115.435121 151.873811,115.684144 151.948518,115.95807 C151.873811,116.979066 151.848908,117.900453 151.848908,118.747132 L151.848908,119.643617 C151.848908,120.490296 151.923615,121.361878 152.048127,122.23346 L151.848908,124.026429 L152.346955,129.803773 C152.346955,135.207581 152.8201,139.44098 153.741486,142.553773 C153.965607,143.151429 154.837189,143.450257 156.33133,143.450257 C157.999787,143.275941 158.821564,142.802796 158.821564,142.055726 C158.821564,141.433167 158.697053,140.785706 158.423127,140.063538 C158.497834,139.690003 158.522736,139.391175 158.522736,139.167054 L158.522736,137.274476 C158.522736,136.502503 158.597443,135.954652 158.721955,135.680726 C158.622346,135.680726 158.547639,135.282288 158.522736,134.485413 C158.647248,133.364808 158.721955,132.667542 158.721955,132.393617 L158.821564,132.393617 C158.821564,132.592835 158.921174,132.916566 159.120393,133.38971 C159.618439,134.23639 160.041779,135.456605 160.415314,137.075257 C161.336701,138.69391 162.009064,140.038636 162.407502,141.159242 C163.005158,142.95221 164.026154,143.848695 165.495393,143.848695 Z M158.522736,119.743226 L158.423127,119.344788 C158.423127,117.825746 158.298615,116.630433 158.024689,115.758851 C158.099397,115.385316 158.124299,115.086488 158.124299,114.862367 L158.124299,114.36432 C157.800568,112.148011 157.626252,110.404847 157.626252,109.085023 L157.626252,108.586976 C157.725861,106.071839 158.049592,104.80182 158.622346,104.80182 L158.721955,104.80182 C160.116486,106.046937 160.813752,108.362855 160.813752,111.774476 C160.813752,115.758851 160.041779,118.423402 158.522736,119.743226 Z" id="WOrter" transform="translate(111.843293, 122.681703) rotate(-6.000000) translate(-111.843293, -122.681703) "></path>
                <path d="M83.3667162,107.191854 C85.5830248,106.992636 86.6787279,106.843222 86.6787279,106.71871 C88.0732592,105.473593 88.7705248,104.303183 88.7705248,103.232382 C88.7705248,101.563925 87.4756029,100.742147 84.8857592,100.742147 C83.2920092,100.742147 81.7729662,100.966269 80.3037279,101.439413 C79.805681,102.111776 79.4819506,102.78414 79.3325365,103.431601 L79.6064623,105.149862 C79.8803881,106.469686 81.1255053,107.14205 83.3667162,107.191854 Z" id="i-copy" transform="translate(84.051531, 103.967001) rotate(-6.000000) translate(-84.051531, -103.967001) "></path>
                <path d="M94.1795022,106.742147 C96.2929587,106.556819 97.3378136,106.417823 97.3378136,106.301993 C98.6676289,105.143692 99.3325365,104.054889 99.3325365,103.05875 C99.3325365,101.506626 98.097708,100.742147 95.628051,100.742147 C94.1082621,100.742147 92.6597133,100.950642 91.2586579,101.390796 C90.7837239,102.016279 90.4750167,102.641761 90.3325365,103.244078 L90.5937502,104.842534 C90.854964,106.070333 92.0422991,106.695815 94.1795022,106.742147 Z" id="i-copy-2" transform="translate(94.832537, 103.742147) rotate(-6.000000) translate(-94.832537, -103.742147) "></path>
                <path d="M98.0455939,166.594264 C98.2301642,166.594264 98.4411017,166.480007 98.6784064,166.242702 C98.7926642,166.242702 98.8541876,165.372585 98.8541876,163.641139 C98.8541876,163.122585 98.7838751,162.410671 98.6432501,161.496608 L98.6432501,161.355983 C98.6432501,161.19778 98.6871954,160.960475 98.7838751,160.652858 C98.7575079,160.503444 98.7135626,160.345241 98.6432501,160.195827 C98.6696173,160.037624 98.6784064,159.905788 98.6784064,159.809108 L98.6784064,159.281764 L98.3971564,155.836452 C98.4411017,155.520046 98.4674689,155.282741 98.4674689,155.133327 C98.3971564,154.597194 98.3620001,154.289577 98.3620001,154.219264 C98.3620001,153.911647 98.2653204,153.762233 98.0807501,153.762233 L97.9401251,153.762233 C97.2897345,153.762233 96.806336,153.894069 96.4987189,154.148952 C96.2965704,154.315944 95.821961,155.317897 95.0573126,157.137233 L95.0221564,157.137233 C94.7409064,156.214382 94.4860235,155.528835 94.2487189,155.063014 C93.5543829,153.98196 92.8864142,153.445827 92.2448126,153.445827 C92.0778204,153.445827 91.8317267,153.480983 91.5065314,153.551296 C91.2692267,153.551296 91.1549689,154.298366 91.1549689,155.801296 L91.1901251,155.977077 C91.1637579,156.021022 91.1549689,156.073757 91.1549689,156.152858 L91.1549689,156.609889 C91.0582892,157.515163 91.0143439,158.024929 91.0143439,158.156764 C91.0582892,159.079616 91.0846564,160.011257 91.0846564,160.969264 C91.040711,161.522975 91.0055548,162.366725 90.9791876,163.500514 C90.9791876,163.667507 90.9879767,163.746608 91.0143439,163.746608 C91.0143439,165.196804 91.2340704,165.926296 91.6823126,165.926296 L92.4557501,165.926296 C93.3961798,165.864772 93.8620001,165.636257 93.8620001,165.258327 L93.8268439,165.188014 C93.8971564,164.713405 93.9323126,164.432155 93.9323126,164.344264 C93.9323126,164.230007 93.8971564,164.027858 93.8268439,163.746608 C93.9411017,162.595241 94.0026251,161.707546 94.0026251,161.074733 C94.0026251,161.01321 93.993836,160.775905 93.9674689,160.371608 L93.9674689,160.301296 L94.0026251,160.301296 C94.1168829,161.030788 94.2223517,161.505397 94.3190314,161.707546 C94.3190314,161.892116 94.7057501,161.988796 95.4791876,161.988796 C95.7077032,161.909694 95.8922735,161.821804 96.0416876,161.707546 C96.2086798,161.505397 96.384461,160.925319 96.5690314,159.949733 L96.6041876,159.949733 L96.6041876,159.984889 L96.5338751,160.688014 L96.6745001,162.480983 C96.6745001,162.674343 96.665711,162.858913 96.6393439,163.043483 L96.7096564,164.027858 C96.6832892,164.177272 96.6745001,164.335475 96.6745001,164.484889 L96.6745001,165.750514 C97.0700079,166.313014 97.5270392,166.594264 98.0455939,166.594264 Z M100.981141,154.878444 C101.763367,154.808132 102.150086,154.755397 102.150086,154.711452 C102.642274,154.271999 102.888367,153.858913 102.888367,153.480983 C102.888367,152.892116 102.431336,152.602077 101.517274,152.602077 C100.954774,152.602077 100.418641,152.681179 99.900086,152.848171 C99.7243048,153.085475 99.610047,153.32278 99.5573126,153.551296 L99.6539923,154.157741 C99.750672,154.623561 100.190125,154.860866 100.981141,154.878444 Z M100.919617,167.121608 C101.341492,167.121608 101.666688,167.060085 101.903992,166.945827 C102.369813,166.884304 102.607117,166.743679 102.607117,166.523952 L102.607117,166.348171 L102.325867,163.535671 C102.352234,163.535671 102.413758,163.192897 102.501649,162.516139 C102.431336,162.085475 102.39618,161.769069 102.39618,161.566921 C102.466492,160.907741 102.501649,160.503444 102.501649,160.336452 L102.501649,160.125514 L102.466492,159.949733 C102.563172,159.703639 102.607117,159.457546 102.607117,159.211452 L102.607117,159.035671 C102.607117,158.842311 102.571961,158.692897 102.501649,158.578639 C102.571961,158.376491 102.607117,158.253444 102.607117,158.191921 C102.607117,157.928249 102.545594,157.550319 102.431336,157.066921 C102.317078,156.460475 101.895203,156.152858 101.165711,156.152858 L100.919617,156.152858 C100.761414,156.152858 100.620789,156.161647 100.497742,156.188014 C100.075867,156.355007 99.8649298,156.530788 99.8649298,156.715358 L99.8649298,157.031764 C99.8649298,157.409694 99.8561407,157.761257 99.8297735,158.086452 C99.7155157,159.062038 99.6276251,159.870632 99.5836798,160.512233 L99.6539923,161.848171 C99.610047,162.463405 99.5836798,162.850124 99.5836798,163.008327 L99.7946173,165.785671 C99.7946173,166.304225 99.8737189,166.620632 100.040711,166.734889 C100.119813,166.989772 100.348328,167.121608 100.743836,167.121608 L100.919617,167.121608 Z M105.850281,167.112819 C106.948914,166.998561 107.502625,166.787624 107.502625,166.480007 C107.502625,166.348171 107.432313,165.970241 107.291688,165.355007 C107.291688,165.240749 107.326844,164.924343 107.397156,164.405788 L107.397156,164.335475 C107.397156,164.027858 107.335633,163.685085 107.221375,163.315944 L107.256531,162.999538 C107.256531,162.938014 107.230164,162.445827 107.186219,161.522975 L107.186219,161.38235 C107.186219,161.215358 107.212586,160.951686 107.256531,160.608913 C107.256531,160.512233 107.221375,160.266139 107.151063,159.870632 C107.151063,159.800319 107.17743,159.650905 107.221375,159.4136 L107.08075,157.831569 L107.151063,157.304225 C107.107117,157.119655 107.036805,156.943874 106.940125,156.776882 C106.98407,156.680202 107.019227,156.539577 107.045594,156.355007 C107.045594,156.223171 106.966492,155.801296 106.7995,155.089382 C106.7995,155.027858 106.808289,154.939968 106.834656,154.808132 L107.819031,154.808132 C108.100281,154.808132 108.39032,154.764186 108.697938,154.667507 C109.23407,154.474147 109.506531,154.148952 109.506531,153.683132 C109.506531,153.560085 109.392274,153.357936 109.154969,153.085475 C108.689149,153.04153 108.082703,152.953639 107.326844,152.839382 L107.115906,152.874538 L106.764344,152.874538 C106.632508,152.874538 106.474305,152.883327 106.272156,152.909694 C106.228211,152.883327 106.184266,152.874538 106.131531,152.874538 C106.061219,152.874538 106.026063,152.883327 106.026063,152.909694 C105.252625,152.94485 104.400086,153.050319 103.459656,153.217311 C102.941102,153.234889 102.659852,153.533718 102.615906,154.105007 C102.615906,154.236843 102.686219,154.3511 102.826844,154.456569 C103.573914,154.553249 104.057313,154.623561 104.26825,154.667507 C104.338563,157.189968 104.435242,158.877468 104.5495,159.730007 L104.479188,160.327663 C104.5495,160.652858 104.584656,161.039577 104.584656,161.487819 L104.584656,162.155788 L104.619813,162.50735 C104.593445,162.50735 104.567078,162.647975 104.5495,162.929225 C104.5495,163.113796 104.558289,163.210475 104.584656,163.210475 C104.584656,165.152858 104.73407,166.365749 105.041688,166.831569 C105.155945,167.016139 105.419617,167.112819 105.850281,167.112819 Z" id="mit" transform="translate(100.242859, 159.861843) rotate(-6.000000) translate(-100.242859, -159.861843) "></path>
                <path d="M120.54374,175.867763 C120.965615,175.832606 121.176553,175.762294 121.176553,175.656825 C121.651162,175.656825 121.879678,175.024013 121.879678,173.758388 L121.879678,173.54745 C121.616006,173.301356 121.369912,172.264247 121.176553,170.4537 C121.176553,169.961513 121.264444,168.695888 121.457803,166.656825 C121.457803,166.463466 121.317178,165.988856 121.035928,165.250575 C121.088662,164.846278 121.10624,164.582606 121.10624,164.477138 C121.10624,164.178309 121.088662,163.7037 121.035928,163.070888 C121.123819,162.596278 121.176553,162.174403 121.176553,161.805263 L121.176553,160.188075 C121.176553,159.520106 121.053506,158.482997 120.82499,157.094325 L120.82499,156.9537 L120.965615,156.9537 C123.022256,156.549403 124.059365,155.951747 124.059365,155.125575 L124.059365,154.914638 C124.059365,154.492763 123.778115,154.281825 123.215615,154.281825 C121.985147,154.334559 121.141397,154.352138 120.684365,154.352138 C120.508584,154.352138 120.385537,154.1412 120.332803,153.719325 L120.332803,153.508388 L120.403115,153.0162 C119.89335,151.750575 119.541787,150.818934 119.348428,150.2037 L119.348428,150.133388 L120.614053,150.133388 L121.10624,150.2037 C121.10624,150.150966 121.123819,150.133388 121.176553,150.133388 L121.317178,150.2037 C122.178506,150.010341 122.916787,149.781825 123.567178,149.500575 C124.182412,149.342372 124.48124,148.885341 124.48124,148.094325 C124.48124,147.67245 123.778115,147.461513 122.371865,147.461513 L121.879678,147.531825 C121.879678,147.479091 121.8621,147.461513 121.809365,147.461513 C121.809365,147.514247 121.791787,147.531825 121.739053,147.531825 L121.246865,147.531825 C120.772256,147.549403 120.54374,147.584559 120.54374,147.67245 L115.621865,148.23495 C114.690225,148.463466 114.215615,148.727138 114.215615,149.008388 C114.215615,149.377528 114.373819,150.063075 114.707803,151.04745 C114.655069,151.04745 114.63749,151.065028 114.63749,151.117763 L114.63749,151.469325 C114.63749,151.732997 114.619912,152.119716 114.567178,152.594325 C114.672647,152.752528 114.742959,153.262294 114.778115,154.1412 L114.777257,154.432097 C114.773172,155.174464 114.753946,156.362636 114.707803,158.008388 C114.760537,158.799403 114.848428,159.502528 114.989053,160.117763 C114.989053,160.522059 114.971475,160.873622 114.91874,161.17245 C114.971475,163.475184 115.041787,165.092372 115.129678,166.024013 C115.076944,166.533778 115.059365,166.990809 115.059365,167.35995 C115.059365,167.729091 115.1121,167.92245 115.19999,167.92245 C115.340615,170.682216 115.463662,172.070888 115.551553,172.070888 C115.551553,173.283778 115.692178,174.092372 115.973428,174.461513 C117.3621,175.393153 118.821084,175.867763 120.332803,175.867763 L120.54374,175.867763 Z M134.2371,176.201747 C134.623819,176.149013 135.133584,176.043544 135.783975,175.850184 C136.258584,175.691981 136.4871,175.305263 136.4871,174.654872 L136.4871,174.443934 C136.4871,174.022059 136.434365,173.617763 136.346475,173.248622 C135.44999,170.664638 135.010537,169.275966 135.010537,169.100184 C134.307412,167.816981 133.95585,167.008388 133.95585,166.709559 C133.6746,165.619716 132.91874,164.371669 131.70585,162.982997 L131.776162,162.842372 C132.004678,162.561122 132.532022,162.086513 133.323037,161.436122 C134.026162,160.486903 134.377725,159.924403 134.377725,159.748622 C134.658975,159.748622 134.992959,157.920497 135.3621,154.264247 C135.3621,154.106044 135.344522,153.613856 135.291787,152.787684 C134.88749,150.221278 134.289834,148.533778 133.463662,147.725184 C132.953897,146.793544 131.864053,146.318934 130.229287,146.318934 C129.649209,146.371669 129.332803,146.389247 129.315225,146.389247 C128.242959,146.389247 127.188272,146.863856 126.151162,147.795497 C125.922647,148.498622 125.729287,148.850184 125.588662,148.850184 C125.184365,149.535731 124.850381,150.889247 124.604287,152.928309 C124.604287,153.719325 124.657022,154.440028 124.744912,155.107997 L124.604287,155.951747 C124.604287,156.145106 124.621865,156.320888 124.6746,156.514247 C124.621865,157.23495 124.604287,157.885341 124.604287,158.482997 L124.604287,159.115809 C124.604287,159.713466 124.657022,160.3287 124.744912,160.943934 L124.604287,162.209559 L124.95585,166.287684 C124.95585,170.102138 125.289834,173.090419 125.940225,175.287684 C126.098428,175.709559 126.713662,175.920497 127.76835,175.920497 C128.946084,175.79745 129.526162,175.463466 129.526162,174.936122 C129.526162,174.496669 129.438272,174.039638 129.244912,173.529872 C129.297647,173.2662 129.315225,173.055263 129.315225,172.897059 L129.315225,171.561122 C129.315225,171.0162 129.367959,170.629481 129.45585,170.436122 C129.385537,170.436122 129.332803,170.154872 129.315225,169.592372 C129.403115,168.801356 129.45585,168.309169 129.45585,168.115809 L129.526162,168.115809 C129.526162,168.256434 129.596475,168.48495 129.7371,168.818934 C130.088662,169.416591 130.38749,170.277919 130.651162,171.420497 C131.301553,172.563075 131.776162,173.512294 132.057412,174.303309 C132.479287,175.568934 133.19999,176.201747 134.2371,176.201747 Z M129.315225,159.186122 L129.244912,158.904872 C129.244912,157.832606 129.157022,156.988856 128.963662,156.373622 C129.016397,156.10995 129.033975,155.899013 129.033975,155.740809 L129.033975,155.389247 C128.805459,153.824794 128.682412,152.594325 128.682412,151.662684 L128.682412,151.311122 C128.752725,149.535731 128.98124,148.639247 129.385537,148.639247 L129.45585,148.639247 C130.440225,149.518153 130.932412,151.152919 130.932412,153.561122 C130.932412,156.373622 130.38749,158.254481 129.315225,159.186122 Z M142.797647,174.777919 C145.416787,174.830653 146.963662,174.215419 147.438272,172.897059 C147.438272,172.369716 146.89335,172.106044 145.803506,172.106044 C144.942178,172.193934 144.098428,172.246669 143.272256,172.246669 C142.95585,172.246669 142.797647,172.106044 142.797647,171.842372 L142.797647,171.719325 C142.797647,171.455653 142.815225,171.104091 142.867959,170.647059 C142.692178,169.996669 142.604287,168.854091 142.604287,167.201747 L142.604287,166.551356 L142.6746,165.760341 C142.533975,165.496669 142.446084,165.180263 142.39335,164.8287 C142.48124,163.756434 142.533975,163.070888 142.533975,162.772059 L142.533975,161.770106 C142.533975,161.541591 142.516397,161.17245 142.463662,160.645106 C142.516397,160.645106 142.533975,160.574794 142.533975,160.451747 L142.463662,160.3287 L142.727334,160.3287 C143.957803,159.889247 144.64335,159.660731 144.783975,159.660731 C145.627725,159.660731 146.190225,159.309169 146.489053,158.606044 C146.489053,158.307216 146.348428,158.043544 146.067178,157.79745 C146.067178,157.639247 145.188272,157.340419 143.412881,156.936122 C142.832803,156.988856 142.498819,157.006434 142.39335,157.006434 C142.287881,157.006434 142.19999,156.67245 142.129678,156.022059 L142.463662,155.090419 C142.410928,154.510341 142.39335,154.053309 142.39335,153.701747 L142.39335,153.561122 C142.39335,153.262294 142.463662,152.928309 142.604287,152.576747 C142.692178,152.576747 142.780069,152.594325 142.867959,152.647059 L143.008584,152.576747 L143.008584,152.647059 L143.342569,152.576747 L144.16874,152.576747 C145.996865,152.576747 147.227334,151.961513 147.842569,150.713466 C147.842569,150.150966 147.508584,149.693934 146.823037,149.324794 C145.750772,149.272059 144.625772,149.184169 143.412881,149.061122 C143.026162,149.061122 142.727334,149.113856 142.533975,149.201747 C142.147256,149.061122 141.285928,148.920497 139.94999,148.79745 C139.94999,148.850184 139.703897,148.867763 139.194131,148.867763 C138.192178,149.236903 137.69999,149.623622 137.69999,149.992763 L137.69999,151.381434 C137.69999,151.627528 137.682412,151.943934 137.629678,152.313075 C137.682412,152.400966 137.717569,152.611903 137.770303,152.910731 C137.717569,153.139247 137.69999,153.350184 137.69999,153.561122 L137.69999,153.824794 C137.69999,153.947841 137.735147,154.1412 137.823037,154.42245 L137.489053,158.729091 C137.541787,160.117763 137.576944,160.873622 137.629678,160.979091 L137.489053,162.508388 C137.576944,163.650966 137.682412,164.371669 137.770303,164.688075 C137.682412,165.707606 137.629678,166.568934 137.629678,167.272059 C137.629678,169.539638 137.89335,171.842372 138.403115,174.180263 C139.264444,174.742763 140.723428,174.936122 142.797647,174.777919 Z M154.241006,174.918544 L154.381631,174.848231 L154.451944,174.848231 C155.489053,174.848231 156.754678,174.514247 158.248819,173.863856 C160.059365,172.861903 161.289834,171.490809 161.905069,169.785731 C162.116006,169.785731 162.309365,168.238856 162.467569,165.145106 C162.942178,163.440028 163.170694,162.068934 163.170694,160.996669 C163.170694,160.539638 163.153115,159.695888 163.100381,158.465419 L163.170694,157.481044 L162.748819,154.879481 C162.239053,152.436122 161.711709,150.625575 161.201944,149.465419 C160.973428,148.709559 160.39335,148.340419 159.444131,148.340419 L159.162881,148.340419 C158.178506,148.586513 157.686319,149.025966 157.686319,149.676356 L157.686319,151.434169 C157.686319,152.260341 157.739053,152.805263 157.826944,153.051356 L157.756631,153.051356 C157.791787,153.139247 157.844522,153.455653 157.897256,154.035731 C157.844522,154.598231 157.809365,154.879481 157.756631,154.879481 C157.703897,158.061122 157.598428,160.135341 157.405069,161.066981 C156.983194,163.193934 156.772256,164.424403 156.772256,164.723231 C156.280069,167.236903 155.910928,168.625575 155.647256,168.871669 C155.506631,168.397059 155.383584,167.887294 155.295694,167.324794 L155.366006,167.324794 C155.172647,166.024013 155.084756,165.022059 155.084756,164.301356 L155.084756,163.246669 C155.084756,162.877528 155.102334,162.385341 155.155069,161.770106 C155.102334,161.682216 155.084756,161.594325 155.084756,161.488856 L155.155069,161.348231 L155.014444,159.590419 C155.102334,158.940028 155.172647,158.043544 155.225381,156.918544 C154.944131,155.406825 154.803506,154.510341 154.803506,154.246669 C154.803506,153.930263 154.85624,153.227138 154.944131,152.137294 C154.944131,151.768153 154.85624,151.258388 154.662881,150.590419 C154.117959,149.693934 153.397256,149.254481 152.483194,149.254481 C152.483194,149.307216 152.465615,149.324794 152.412881,149.324794 L152.412881,149.254481 L152.272256,149.324794 L151.850381,149.324794 C151.305459,149.324794 150.760537,149.447841 150.233194,149.676356 C149.582803,149.676356 149.248819,150.098231 149.248819,150.941981 L149.248819,152.066981 C148.914834,158.6412 148.756631,162.29745 148.756631,163.035731 C148.756631,165.566981 149.055459,167.764247 149.670694,169.645106 C150.338662,171.244716 151.041787,172.545497 151.780069,173.512294 C152.641397,174.443934 153.414834,174.918544 154.100381,174.918544 L154.241006,174.848231 L154.241006,174.918544 Z M173.489053,174.3912 C176.073037,173.863856 177.35624,172.949794 177.35624,171.649013 L177.285928,170.664638 C177.426553,169.838466 177.496865,169.346278 177.496865,169.188075 C177.496865,168.889247 177.479287,168.291591 177.426553,167.35995 C177.619912,166.656825 177.707803,165.303309 177.707803,163.281825 C177.707803,163.176356 177.690225,162.912684 177.63749,162.508388 C177.778115,162.104091 177.848428,161.506434 177.848428,160.680263 L177.848428,160.60995 C177.848428,159.801356 177.795694,159.168544 177.707803,158.711513 C177.848428,158.377528 177.91874,157.902919 177.91874,157.305263 L177.91874,157.23495 C177.91874,156.215419 177.848428,155.371669 177.707803,154.7037 L177.848428,151.399013 C177.760537,151.029872 177.567178,150.537684 177.285928,149.92245 C177.215615,148.885341 177.145303,148.375575 177.07499,148.375575 C177.07499,147.865809 176.70585,147.602138 175.94999,147.602138 L175.598428,147.602138 C174.754678,147.707606 174.332803,147.971278 174.332803,148.375575 L174.332803,149.852138 C174.332803,150.168544 174.26249,150.854091 174.121865,151.8912 L174.121865,152.805263 C174.121865,153.033778 174.139444,153.262294 174.192178,153.508388 C174.139444,153.684169 174.121865,153.895106 174.121865,154.1412 L174.121865,154.563075 C174.121865,154.932216 174.139444,155.248622 174.192178,155.477138 C174.139444,155.670497 174.121865,156.373622 174.121865,157.586513 C173.89335,159.924403 173.770303,161.260341 173.770303,161.594325 L173.69999,161.594325 C173.69999,161.119716 173.629678,160.856044 173.489053,160.820888 C173.260537,158.940028 172.944131,157.744716 172.57499,157.23495 C172.57499,156.092372 172.29374,155.248622 171.73124,154.7037 C171.73124,153.736903 171.502725,152.981044 171.028115,152.4537 C170.817178,151.768153 170.60624,151.223231 170.395303,150.836513 C169.850381,150.238856 169.551553,149.799403 169.48124,149.500575 C169.48124,149.0787 168.5496,148.867763 166.66874,148.867763 C166.246865,148.867763 165.895303,148.938075 165.614053,149.0787 C165.139444,149.0787 164.910928,149.658778 164.910928,150.836513 C164.910928,151.205653 164.928506,151.856044 164.98124,152.805263 C164.840615,155.477138 164.647256,158.096278 164.41874,160.680263 C164.506631,161.471278 164.559365,162.068934 164.559365,162.508388 C164.559365,162.772059 164.541787,163.158778 164.489053,163.633388 L164.559365,164.055263 C164.471475,164.565028 164.41874,164.881434 164.41874,165.039638 C164.41874,165.531825 164.506631,166.463466 164.69999,167.852138 C164.69999,168.115809 164.629678,169.275966 164.489053,171.29745 C164.489053,173.072841 165.315225,173.969325 166.94999,173.969325 C167.494912,173.969325 168.07499,173.758388 168.707803,173.336513 C168.83085,173.143153 168.953897,172.070888 169.059365,170.102138 C169.059365,169.838466 169.006631,168.48495 168.91874,166.024013 L168.91874,165.742763 C168.91874,165.514247 168.936319,165.162684 168.989053,164.688075 L169.059365,164.688075 L170.114053,168.414638 C170.869912,170.647059 171.326944,172.158778 171.520303,172.914638 C172.100381,173.899013 172.750772,174.3912 173.489053,174.3912 Z M183.649209,175.990809 C184.8621,175.990809 186.127725,174.848231 187.446084,172.545497 L188.430459,171.912684 C188.623819,171.262294 189.028115,170.699794 189.625772,170.225184 C189.819131,169.486903 190.188272,168.48495 190.750772,167.201747 C190.838662,166.23495 191.032022,165.285731 191.313272,164.318934 C191.313272,164.107997 191.295694,163.809169 191.242959,163.404872 C191.383584,162.402919 191.453897,161.664638 191.453897,161.154872 C191.453897,160.820888 191.383584,160.188075 191.242959,159.256434 C191.295694,158.852138 191.313272,158.535731 191.313272,158.272059 C191.313272,157.604091 191.0496,156.461513 190.539834,154.826747 C189.660928,152.594325 188.746865,150.871669 187.797647,149.693934 C186.866006,148.094325 185.266397,147.303309 183.016397,147.303309 L182.875772,147.303309 C180.344522,147.3912 179.078897,147.795497 179.078897,148.498622 C179.078897,148.621669 179.166787,148.973231 179.360147,149.553309 L179.360147,150.467372 C179.360147,151.856044 179.377725,153.332606 179.430459,154.897059 L179.289834,157.287684 L179.430459,158.201747 C179.377725,158.35995 179.342569,159.045497 179.289834,160.240809 C179.342569,161.277919 179.412881,161.998622 179.500772,162.420497 C179.412881,162.719325 179.360147,162.877528 179.360147,162.912684 C179.360147,163.809169 179.430459,164.969325 179.571084,166.357997 L179.571084,167.201747 C179.571084,168.449794 179.623819,169.311122 179.711709,169.803309 C179.764444,171.508388 179.992959,173.020106 180.414834,174.373622 C180.748819,174.936122 181.381631,175.217372 182.313272,175.217372 C182.6121,175.727138 183.069131,175.990809 183.649209,175.990809 Z M185.617959,168.678309 L185.547647,168.678309 L185.547647,168.607997 C185.635537,168.432216 185.688272,168.238856 185.688272,168.045497 L185.688272,163.615809 C185.688272,163.211513 185.635537,162.719325 185.547647,162.139247 C185.547647,162.121669 185.565225,161.805263 185.617959,161.225184 L185.547647,160.732997 C185.600381,160.486903 185.617959,160.205653 185.617959,159.889247 L185.617959,159.748622 C185.565225,159.098231 185.477334,158.764247 185.336709,158.764247 C185.4246,158.465419 185.477334,158.272059 185.477334,158.201747 C185.477334,157.129481 185.248819,156.426356 184.774209,156.092372 L184.774209,154.686122 L183.649209,149.904872 L184.914834,150.959559 C186.461709,153.420497 187.235147,156.67245 187.235147,160.732997 L187.235147,161.225184 C187.235147,162.807216 187.094522,164.090419 186.813272,165.092372 C186.813272,166.059169 186.408975,167.254481 185.617959,168.678309 Z M197.782022,174.777919 C200.401162,174.830653 201.948037,174.215419 202.422647,172.897059 C202.422647,172.369716 201.877725,172.106044 200.787881,172.106044 C199.926553,172.193934 199.082803,172.246669 198.256631,172.246669 C197.940225,172.246669 197.782022,172.106044 197.782022,171.842372 L197.782022,171.719325 C197.782022,171.455653 197.7996,171.104091 197.852334,170.647059 C197.676553,169.996669 197.588662,168.854091 197.588662,167.201747 L197.588662,166.551356 L197.658975,165.760341 C197.51835,165.496669 197.430459,165.180263 197.377725,164.8287 C197.465615,163.756434 197.51835,163.070888 197.51835,162.772059 L197.51835,161.770106 C197.51835,161.541591 197.500772,161.17245 197.448037,160.645106 C197.500772,160.645106 197.51835,160.574794 197.51835,160.451747 L197.448037,160.3287 L197.711709,160.3287 C198.942178,159.889247 199.627725,159.660731 199.76835,159.660731 C200.6121,159.660731 201.1746,159.309169 201.473428,158.606044 C201.473428,158.307216 201.332803,158.043544 201.051553,157.79745 C201.051553,157.639247 200.172647,157.340419 198.397256,156.936122 C197.817178,156.988856 197.483194,157.006434 197.377725,157.006434 C197.272256,157.006434 197.184365,156.67245 197.114053,156.022059 L197.448037,155.090419 C197.395303,154.510341 197.377725,154.053309 197.377725,153.701747 L197.377725,153.561122 C197.377725,153.262294 197.448037,152.928309 197.588662,152.576747 C197.676553,152.576747 197.764444,152.594325 197.852334,152.647059 L197.992959,152.576747 L197.992959,152.647059 L198.326944,152.576747 L199.153115,152.576747 C200.98124,152.576747 202.211709,151.961513 202.826944,150.713466 C202.826944,150.150966 202.492959,149.693934 201.807412,149.324794 C200.735147,149.272059 199.610147,149.184169 198.397256,149.061122 C198.010537,149.061122 197.711709,149.113856 197.51835,149.201747 C197.131631,149.061122 196.270303,148.920497 194.934365,148.79745 C194.934365,148.850184 194.688272,148.867763 194.178506,148.867763 C193.176553,149.236903 192.684365,149.623622 192.684365,149.992763 L192.684365,151.381434 C192.684365,151.627528 192.666787,151.943934 192.614053,152.313075 C192.666787,152.400966 192.701944,152.611903 192.754678,152.910731 C192.701944,153.139247 192.684365,153.350184 192.684365,153.561122 L192.684365,153.824794 C192.684365,153.947841 192.719522,154.1412 192.807412,154.42245 L192.473428,158.729091 C192.526162,160.117763 192.561319,160.873622 192.614053,160.979091 L192.473428,162.508388 C192.561319,163.650966 192.666787,164.371669 192.754678,164.688075 C192.666787,165.707606 192.614053,166.568934 192.614053,167.272059 C192.614053,169.539638 192.877725,171.842372 193.38749,174.180263 C194.248819,174.742763 195.707803,174.936122 197.782022,174.777919 Z M212.9871,174.3912 C215.571084,173.863856 216.854287,172.949794 216.854287,171.649013 L216.783975,170.664638 C216.9246,169.838466 216.994912,169.346278 216.994912,169.188075 C216.994912,168.889247 216.977334,168.291591 216.9246,167.35995 C217.117959,166.656825 217.20585,165.303309 217.20585,163.281825 C217.20585,163.176356 217.188272,162.912684 217.135537,162.508388 C217.276162,162.104091 217.346475,161.506434 217.346475,160.680263 L217.346475,160.60995 C217.346475,159.801356 217.29374,159.168544 217.20585,158.711513 C217.346475,158.377528 217.416787,157.902919 217.416787,157.305263 L217.416787,157.23495 C217.416787,156.215419 217.346475,155.371669 217.20585,154.7037 L217.346475,151.399013 C217.258584,151.029872 217.065225,150.537684 216.783975,149.92245 C216.713662,148.885341 216.64335,148.375575 216.573037,148.375575 C216.573037,147.865809 216.203897,147.602138 215.448037,147.602138 L215.096475,147.602138 C214.252725,147.707606 213.83085,147.971278 213.83085,148.375575 L213.83085,149.852138 C213.83085,150.168544 213.760537,150.854091 213.619912,151.8912 L213.619912,152.805263 C213.619912,153.033778 213.63749,153.262294 213.690225,153.508388 C213.63749,153.684169 213.619912,153.895106 213.619912,154.1412 L213.619912,154.563075 C213.619912,154.932216 213.63749,155.248622 213.690225,155.477138 C213.63749,155.670497 213.619912,156.373622 213.619912,157.586513 C213.391397,159.924403 213.26835,161.260341 213.26835,161.594325 L213.198037,161.594325 C213.198037,161.119716 213.127725,160.856044 212.9871,160.820888 C212.758584,158.940028 212.442178,157.744716 212.073037,157.23495 C212.073037,156.092372 211.791787,155.248622 211.229287,154.7037 C211.229287,153.736903 211.000772,152.981044 210.526162,152.4537 C210.315225,151.768153 210.104287,151.223231 209.89335,150.836513 C209.348428,150.238856 209.0496,149.799403 208.979287,149.500575 C208.979287,149.0787 208.047647,148.867763 206.166787,148.867763 C205.744912,148.867763 205.39335,148.938075 205.1121,149.0787 C204.63749,149.0787 204.408975,149.658778 204.408975,150.836513 C204.408975,151.205653 204.426553,151.856044 204.479287,152.805263 C204.338662,155.477138 204.145303,158.096278 203.916787,160.680263 C204.004678,161.471278 204.057412,162.068934 204.057412,162.508388 C204.057412,162.772059 204.039834,163.158778 203.9871,163.633388 L204.057412,164.055263 C203.969522,164.565028 203.916787,164.881434 203.916787,165.039638 C203.916787,165.531825 204.004678,166.463466 204.198037,167.852138 C204.198037,168.115809 204.127725,169.275966 203.9871,171.29745 C203.9871,173.072841 204.813272,173.969325 206.448037,173.969325 C206.992959,173.969325 207.573037,173.758388 208.20585,173.336513 C208.328897,173.143153 208.451944,172.070888 208.557412,170.102138 C208.557412,169.838466 208.504678,168.48495 208.416787,166.024013 L208.416787,165.742763 C208.416787,165.514247 208.434365,165.162684 208.4871,164.688075 L208.557412,164.688075 L209.6121,168.414638 C210.367959,170.647059 210.82499,172.158778 211.01835,172.914638 C211.598428,173.899013 212.248819,174.3912 212.9871,174.3912 Z" id="Freunden" transform="translate(165.816201, 161.260341) rotate(-6.000000) translate(-165.816201, -161.260341) "></path>
            </g>
        </g>
    </g>
</svg>